<?xml version="1.0" encoding="UTF-8"?>
<svg width="94px" height="30px" viewBox="0 0 94 30" version="1.1" xmlns="http://www.w3.org/2000/svg" xmlns:xlink="http://www.w3.org/1999/xlink">
    <!-- Generator: Sketch 52.1 (67048) - http://www.bohemiancoding.com/sketch -->
    <title>Shishak</title>
    <desc>Created with Sketch.</desc>
    <g id="Page-1" stroke="none" stroke-width="1" fill="none" fill-rule="evenodd">
        <g id="Artboard" transform="translate(-88.000000, -91.000000)" fill="#616161">
            <path d="M100.211094,96.6305625 C101.021764,96.2252271 102.079421,95.7438986 103.384094,95.1865625 C104.688767,94.6292264 106.107419,94.1098982 107.640094,93.6285625 C109.172768,93.1472268 110.756086,92.7355642 112.390094,92.3935625 C114.024102,92.0515608 115.56942,91.8805625 117.026094,91.8805625 C118.482768,91.8805625 119.793755,92.1085602 120.959094,92.5645625 C122.124433,93.0205648 122.998424,93.7932237 123.581094,94.8825625 C123.834428,95.3638982 123.885095,95.826227 123.733094,96.2695625 C123.581093,96.7128981 123.296096,97.1308939 122.878094,97.5235625 C122.460092,97.9162311 121.959763,98.2708942 121.377094,98.5875625 C120.794424,98.9042308 120.199097,99.1828946 119.591094,99.4235625 C118.983091,99.6642304 118.413096,99.8478952 117.881094,99.9745625 C117.349091,100.10123 116.943762,100.164563 116.665094,100.164563 C116.031757,100.189896 115.487096,100.12023 115.031094,99.9555625 C114.575091,99.790895 114.233095,99.6008969 114.005094,99.3855625 C113.777093,99.1702281 113.688427,98.9612302 113.739094,98.7585625 C113.789761,98.5558948 114.005092,98.4292294 114.385094,98.3785625 C114.689095,98.3278956 115.113424,98.2328965 115.658094,98.0935625 C116.202763,97.9542285 116.785424,97.7832302 117.406094,97.5805625 C118.026764,97.3778948 118.641091,97.1435638 119.249094,96.8775625 C119.857097,96.6115612 120.382758,96.3455638 120.826094,96.0795625 C121.269429,95.8135612 121.57976,95.5412306 121.757094,95.2625625 C121.934428,94.9838944 121.909095,94.7178971 121.681094,94.4645625 C121.149091,93.9325598 120.325766,93.6475627 119.211094,93.6095625 C118.096422,93.5715623 116.804434,93.7235608 115.335094,94.0655625 C113.865753,94.4075642 112.282436,94.9015593 110.585094,95.5475625 C108.887752,96.1935657 107.177769,96.9345583 105.455094,97.7705625 C103.732418,98.6065667 102.066768,99.4995578 100.458094,100.449562 C98.849419,101.399567 97.3991002,102.355891 96.1070938,103.318562 C94.8150873,104.281234 93.7510979,105.218558 92.9150937,106.130562 C92.0790896,107.042567 91.5850945,107.853226 91.4330937,108.562562 C91.3317599,109.043898 91.4584253,109.322562 91.8130937,109.398562 C92.1677622,109.474563 92.5984246,109.46823 93.1050937,109.379562 C93.6117629,109.290895 94.1247578,109.157897 94.6440937,108.980562 C95.1634297,108.803228 95.5370926,108.689229 95.7650938,108.638563 C96.7530987,108.385228 97.7854217,108.100231 98.8620937,107.783563 C99.9387658,107.466894 101.021755,107.175564 102.111094,106.909562 C103.200433,106.643561 104.283422,106.415563 105.360094,106.225562 C106.436766,106.035562 107.494422,105.953229 108.533094,105.978563 C109.141097,106.003896 109.80609,106.187561 110.528094,106.529562 C111.250097,106.871564 111.883424,107.321226 112.428094,107.878563 C112.972763,108.435899 113.346426,109.075559 113.549094,109.797562 C113.751761,110.519566 113.637763,111.273225 113.207094,112.058562 C112.725758,112.894567 111.984765,113.730558 110.984094,114.566563 C109.983422,115.402567 108.824434,116.187892 107.507094,116.922562 C106.189754,117.657233 104.783768,118.30956 103.289094,118.879562 C101.79442,119.449565 100.318768,119.892894 98.8620937,120.209563 C97.4054198,120.526231 96.0311002,120.690896 94.7390937,120.703563 C93.4470873,120.716229 92.3450983,120.519898 91.4330937,120.114563 C90.7744238,119.810561 90.2107628,119.348232 89.7420937,118.727563 C89.2734247,118.106893 88.9630945,117.448233 88.8110937,116.751563 C88.659093,116.054892 88.7097591,115.383566 88.9630937,114.737562 C89.2164284,114.091559 89.72309,113.578564 90.4830937,113.198563 C90.7364283,113.097229 91.0150922,113.097229 91.3190937,113.198563 C91.6230953,113.299896 91.8827593,113.445562 92.0980938,113.635562 C92.3134282,113.825563 92.4527601,114.028228 92.5160937,114.243562 C92.5794274,114.458897 92.5097614,114.629895 92.3070938,114.756563 C91.3950892,115.339232 90.7997618,115.845894 90.5210938,116.276562 C90.2424257,116.707231 90.1917595,117.061894 90.3690938,117.340563 C90.546428,117.619231 90.9010911,117.828228 91.4330937,117.967562 C91.9650964,118.106897 92.5857569,118.176563 93.2950938,118.176563 C94.0044306,118.176563 94.7517565,118.125896 95.5370937,118.024563 C96.322431,117.923229 97.0697569,117.758564 97.7790938,117.530563 C99.9324378,116.871893 102.054083,116.029568 104.144094,115.003563 C106.234104,113.977557 108.229084,112.590571 110.129094,110.842562 C111.066432,109.981225 111.516094,109.354231 111.478094,108.961562 C111.440094,108.568894 111.072764,108.347229 110.376094,108.296562 C109.679424,108.245896 108.735766,108.321895 107.545094,108.524563 C106.354421,108.72723 105.081434,108.974228 103.726094,109.265563 C102.370754,109.556897 101.009101,109.854561 99.6410937,110.158563 C98.2730869,110.462564 97.0824322,110.690562 96.0690937,110.842562 C95.587758,110.918563 95.0620966,110.950229 94.4920937,110.937562 C93.9220909,110.924896 93.3647631,110.87423 92.8200937,110.785562 C92.2754244,110.696895 91.7560962,110.557563 91.2620938,110.367562 C90.7680913,110.177562 90.3564287,109.930564 90.0270938,109.626563 C89.0390888,108.739891 88.6717591,107.739235 88.9250938,106.624562 C89.1784284,105.50989 89.8307552,104.369902 90.8820937,103.204563 C91.9334323,102.039223 93.2887521,100.886568 94.9480937,99.7465625 C96.6074354,98.6065568 98.3617512,97.5679005 100.211094,96.6305625 Z M132.663094,93.7045625 C132.789761,94.0845644 132.644096,94.6102258 132.226094,95.2815625 C131.808092,95.9528992 131.219098,96.7065583 130.459094,97.5425625 C129.69909,98.3785667 128.812432,99.2715577 127.799094,100.221563 C126.785755,101.171567 125.721766,102.121558 124.607094,103.071562 C123.492422,104.021567 122.371433,104.939891 121.244094,105.826562 C120.116755,106.713234 119.084432,107.498559 118.147094,108.182563 C117.919093,108.587898 117.741761,108.929894 117.615094,109.208562 C117.488426,109.461897 117.406094,109.664562 117.368094,109.816563 C117.330094,109.968563 117.374426,109.98123 117.501094,109.854563 C117.653095,109.727895 117.957091,109.455565 118.413094,109.037563 C118.869096,108.61956 119.363091,108.176232 119.895094,107.707562 C120.427096,107.238893 120.952758,106.795565 121.472094,106.377562 C121.99143,105.95956 122.403092,105.68723 122.707094,105.560563 C122.985762,105.433895 123.251759,105.421229 123.505094,105.522562 C123.758428,105.623896 123.986426,105.782228 124.189094,105.997563 C124.391761,106.212897 124.556426,106.440895 124.683094,106.681562 C124.809761,106.92223 124.898427,107.118562 124.949094,107.270562 C124.999761,107.447897 124.866762,107.739227 124.550094,108.144563 C124.233426,108.549898 123.891429,108.974227 123.524094,109.417563 C123.156759,109.860898 122.840095,110.259894 122.574094,110.614563 C122.308092,110.969231 122.251093,111.184562 122.403094,111.260562 C122.504428,111.285896 122.713425,111.228897 123.030094,111.089562 C123.346762,110.950228 123.714092,110.76023 124.132094,110.519563 C124.550096,110.278895 124.999758,110.000231 125.481094,109.683562 C125.962429,109.366894 126.418425,109.062897 126.849094,108.771563 C127.279763,108.480228 127.659759,108.21423 127.989094,107.973562 C128.318429,107.732895 128.546426,107.54923 128.673094,107.422562 C129.103763,107.093228 129.452092,107.010895 129.718094,107.175562 C129.984095,107.34023 129.990428,107.587228 129.737094,107.916562 C129.610426,108.068563 129.350762,108.359894 128.958094,108.790562 C128.565425,109.221231 128.096763,109.68356 127.552094,110.177562 C127.007424,110.671565 126.424764,111.12756 125.804094,111.545563 C125.183424,111.963565 124.59443,112.248562 124.037094,112.400563 C123.302423,112.577897 122.67543,112.58423 122.156094,112.419562 C121.636758,112.254895 121.225095,112.007897 120.921094,111.678562 C120.617092,111.349228 120.408094,110.975565 120.294094,110.557563 C120.180093,110.13956 120.186426,109.753231 120.313094,109.398562 C119.933092,109.753231 119.565762,110.069894 119.211094,110.348562 C118.907092,110.627231 118.603095,110.893228 118.299094,111.146563 C117.995092,111.399897 117.754428,111.602562 117.577094,111.754562 C117.39976,111.931897 117.152762,112.077562 116.836094,112.191563 C116.519425,112.305563 116.190095,112.368896 115.848094,112.381563 C115.506092,112.394229 115.202095,112.343563 114.936094,112.229563 C114.670092,112.115562 114.511761,111.906564 114.461094,111.602563 C114.410427,111.298561 114.600425,110.627234 115.031094,109.588562 C115.461763,108.549891 116.063423,107.333903 116.836094,105.940562 C117.608764,104.547222 118.501755,103.058904 119.515094,101.475562 C120.528432,99.8922213 121.573422,98.4039028 122.650094,97.0105625 C123.726766,95.6172222 124.790755,94.4139009 125.842094,93.4005625 C126.893432,92.3872241 127.83709,91.7412306 128.673094,91.4625625 C128.926428,91.3612287 129.249425,91.3168958 129.642094,91.3295625 C130.034762,91.3422292 130.421092,91.430895 130.801094,91.5955625 C131.181096,91.76023 131.542092,92.0135608 131.884094,92.3555625 C132.226095,92.6975642 132.48576,93.1472264 132.663094,93.7045625 Z M131.181094,92.8305625 C131.07976,92.7038952 130.845429,92.792561 130.478094,93.0965625 C130.110759,93.400564 129.654763,93.8375597 129.110094,94.4075625 C128.565424,94.9775653 127.95743,95.648892 127.286094,96.4215625 C126.614757,97.194233 125.937097,97.9985583 125.253094,98.8345625 C123.657086,100.785239 121.858437,103.027216 119.857094,105.560563 C120.161095,105.307228 120.680423,104.844899 121.415094,104.173563 C122.149764,103.502226 122.960423,102.729567 123.847094,101.855562 C124.733765,100.981558 125.645756,100.056901 126.583094,99.0815625 C127.520432,98.1062243 128.35009,97.1879001 129.072094,96.3265625 C129.794097,95.4652249 130.364092,94.717899 130.782094,94.0845625 C131.200096,93.451226 131.333095,93.0332302 131.181094,92.8305625 Z M132.929094,104.192563 C132.777093,104.192563 132.587095,104.154563 132.359094,104.078563 C132.131093,104.002562 131.922095,103.90123 131.732094,103.774563 C131.542093,103.647895 131.390094,103.50223 131.276094,103.337563 C131.162093,103.172895 131.11776,103.001897 131.143094,102.824562 C131.168427,102.672562 131.238093,102.469897 131.352094,102.216563 C131.466094,101.963228 131.599093,101.71623 131.751094,101.475562 C131.903095,101.234895 132.074093,101.025897 132.264094,100.848562 C132.454095,100.671228 132.63776,100.557229 132.815094,100.506563 C132.992428,100.481229 133.207759,100.512895 133.461094,100.601562 C133.714428,100.69023 133.955093,100.816895 134.183094,100.981562 C134.411095,101.14623 134.59476,101.323562 134.734094,101.513563 C134.873428,101.703563 134.930427,101.861895 134.905094,101.988563 C134.905094,102.140563 134.829095,102.336895 134.677094,102.577562 C134.525093,102.81823 134.347761,103.052561 134.145094,103.280563 C133.942426,103.508564 133.727095,103.711228 133.499094,103.888563 C133.271093,104.065897 133.081095,104.167229 132.929094,104.192563 Z M134.373094,107.916562 C134.879763,107.46056 135.259759,107.321228 135.513094,107.498562 C135.766428,107.675897 135.665096,108.043226 135.209094,108.600562 C134.905092,108.980564 134.537763,109.37956 134.107094,109.797562 C133.676425,110.215565 133.239429,110.608227 132.796094,110.975562 C132.352758,111.342898 131.941096,111.659561 131.561094,111.925562 C131.181092,112.191564 130.889761,112.349896 130.687094,112.400563 C130.408426,112.425896 130.085429,112.37523 129.718094,112.248562 C129.350759,112.121895 128.996095,111.931897 128.654094,111.678562 C128.312092,111.425228 128.033428,111.114898 127.818094,110.747563 C127.602759,110.380227 127.520427,109.968565 127.571094,109.512563 C127.621761,109.081894 127.742093,108.606898 127.932094,108.087563 C128.122095,107.568227 128.343759,107.093231 128.597094,106.662563 C128.850428,106.231894 129.103759,105.877231 129.357094,105.598562 C129.610428,105.319894 129.838426,105.193229 130.041094,105.218563 C130.218428,105.269229 130.408426,105.338895 130.611094,105.427562 C130.813761,105.51623 130.997426,105.617562 131.162094,105.731562 C131.326761,105.845563 131.45976,105.978562 131.561094,106.130562 C131.662428,106.282563 131.700427,106.459895 131.675094,106.662563 C131.64976,106.86523 131.535761,107.162894 131.333094,107.555563 C131.130426,107.948231 130.927761,108.347227 130.725094,108.752562 C130.522426,109.157898 130.345095,109.525228 130.193094,109.854563 C130.041093,110.183897 130.01576,110.386562 130.117094,110.462563 C130.193094,110.513229 130.376759,110.481563 130.668094,110.367562 C130.959429,110.253562 131.301425,110.082564 131.694094,109.854563 C132.086762,109.626561 132.517425,109.347897 132.986094,109.018563 C133.454763,108.689228 133.917091,108.321898 134.373094,107.916562 Z M136.349094,107.840563 C136.881096,107.764562 137.381425,107.758229 137.850094,107.821562 C138.318763,107.884896 138.736759,107.992562 139.104094,108.144563 C139.471429,108.296563 139.762759,108.499228 139.978094,108.752562 C140.193428,109.005897 140.301094,109.297228 140.301094,109.626563 C140.301094,109.955897 140.193428,110.34856 139.978094,110.804563 C139.762759,111.260565 139.484095,111.703894 139.142094,112.134563 C138.800092,112.565231 138.407429,112.957894 137.964094,113.312562 C137.520758,113.667231 137.096429,113.895229 136.691094,113.996562 C136.260425,114.097896 135.842429,114.08523 135.437094,113.958562 C135.031758,113.831895 134.670762,113.641897 134.354094,113.388563 C134.037425,113.135228 133.777761,112.850231 133.575094,112.533563 C133.372426,112.216894 133.271094,111.931897 133.271094,111.678562 C133.271094,111.501228 133.34076,111.298564 133.480094,111.070562 C133.619428,110.842561 133.803093,110.620897 134.031094,110.405563 C134.259095,110.190228 134.512426,109.987563 134.791094,109.797562 C135.069762,109.607562 135.348426,109.44923 135.627094,109.322563 C136.057763,109.119895 136.311093,109.113562 136.387094,109.303562 C136.463094,109.493563 136.374428,109.727894 136.121094,110.006563 C136.045093,110.082563 135.924761,110.215562 135.760094,110.405563 L135.266094,110.975562 C135.101426,111.165563 134.962094,111.349228 134.848094,111.526562 C134.734093,111.703897 134.715093,111.830562 134.791094,111.906563 C134.917761,112.007896 135.139426,111.950897 135.456094,111.735563 C135.772762,111.520228 136.089426,111.241564 136.406094,110.899563 C136.722762,110.557561 137.001426,110.215564 137.242094,109.873562 C137.482762,109.531561 137.590427,109.271897 137.565094,109.094562 C137.514427,108.917228 137.337095,108.834896 137.033094,108.847563 C136.729092,108.860229 136.387096,108.872896 136.007094,108.885562 C135.627092,108.898229 135.240762,108.872896 134.848094,108.809562 C134.455425,108.746229 134.157761,108.562564 133.955094,108.258562 C133.727093,107.929228 133.632094,107.555565 133.670094,107.137563 C133.708094,106.71956 133.828426,106.320564 134.031094,105.940562 C134.233761,105.560561 134.493426,105.237564 134.810094,104.971563 C135.126762,104.705561 135.437092,104.547229 135.741094,104.496562 C135.943761,104.471229 136.159093,104.509229 136.387094,104.610563 C136.615095,104.711896 136.824093,104.844895 137.014094,105.009563 C137.204095,105.17423 137.362426,105.357895 137.489094,105.560563 C137.615761,105.76323 137.679094,105.953228 137.679094,106.130562 C137.679094,106.485231 137.514429,106.776561 137.185094,107.004562 C136.855759,107.232564 136.577095,107.511228 136.349094,107.840563 Z M158.769094,93.7045625 C158.895761,94.0845644 158.750096,94.6102258 158.332094,95.2815625 C157.914092,95.9528992 157.325098,96.7065583 156.565094,97.5425625 C155.80509,98.3785667 154.918432,99.2715577 153.905094,100.221563 C152.891755,101.171567 151.827766,102.121558 150.713094,103.071562 C149.598422,104.021567 148.477433,104.939891 147.350094,105.826562 C146.222755,106.713234 145.190432,107.498559 144.253094,108.182563 C144.025093,108.587898 143.847761,108.929894 143.721094,109.208562 C143.594426,109.461897 143.512094,109.664562 143.474094,109.816563 C143.436094,109.968563 143.480426,109.98123 143.607094,109.854563 C143.759095,109.727895 144.063091,109.455565 144.519094,109.037563 C144.975096,108.61956 145.469091,108.176232 146.001094,107.707562 C146.533096,107.238893 147.058758,106.795565 147.578094,106.377562 C148.09743,105.95956 148.509092,105.68723 148.813094,105.560563 C149.091762,105.433895 149.357759,105.421229 149.611094,105.522562 C149.864428,105.623896 150.092426,105.782228 150.295094,105.997563 C150.497761,106.212897 150.662426,106.440895 150.789094,106.681562 C150.915761,106.92223 151.004427,107.118562 151.055094,107.270562 C151.105761,107.447897 150.972762,107.739227 150.656094,108.144563 C150.339426,108.549898 149.997429,108.974227 149.630094,109.417563 C149.262759,109.860898 148.946095,110.259894 148.680094,110.614563 C148.414092,110.969231 148.357093,111.184562 148.509094,111.260562 C148.610428,111.285896 148.819425,111.228897 149.136094,111.089562 C149.452762,110.950228 149.820092,110.76023 150.238094,110.519563 C150.656096,110.278895 151.105758,110.000231 151.587094,109.683562 C152.068429,109.366894 152.524425,109.062897 152.955094,108.771563 C153.385763,108.480228 153.765759,108.21423 154.095094,107.973562 C154.424429,107.732895 154.652426,107.54923 154.779094,107.422562 C155.209763,107.093228 155.558092,107.010895 155.824094,107.175562 C156.090095,107.34023 156.096428,107.587228 155.843094,107.916562 C155.716426,108.068563 155.456762,108.359894 155.064094,108.790562 C154.671425,109.221231 154.202763,109.68356 153.658094,110.177562 C153.113424,110.671565 152.530764,111.12756 151.910094,111.545563 C151.289424,111.963565 150.70043,112.248562 150.143094,112.400563 C149.408423,112.577897 148.78143,112.58423 148.262094,112.419562 C147.742758,112.254895 147.331095,112.007897 147.027094,111.678562 C146.723092,111.349228 146.514094,110.975565 146.400094,110.557563 C146.286093,110.13956 146.292426,109.753231 146.419094,109.398562 C146.039092,109.753231 145.671762,110.069894 145.317094,110.348562 C145.013092,110.627231 144.709095,110.893228 144.405094,111.146563 C144.101092,111.399897 143.860428,111.602562 143.683094,111.754562 C143.50576,111.931897 143.258762,112.077562 142.942094,112.191563 C142.625426,112.305563 142.296095,112.368896 141.954094,112.381563 C141.612092,112.394229 141.308095,112.343563 141.042094,112.229563 C140.776092,112.115562 140.617761,111.906564 140.567094,111.602563 C140.516427,111.298561 140.706425,110.627234 141.137094,109.588562 C141.567763,108.549891 142.169423,107.333903 142.942094,105.940562 C143.714764,104.547222 144.607755,103.058904 145.621094,101.475562 C146.634432,99.8922213 147.679422,98.4039028 148.756094,97.0105625 C149.832766,95.6172222 150.896755,94.4139009 151.948094,93.4005625 C152.999432,92.3872241 153.94309,91.7412306 154.779094,91.4625625 C155.032428,91.3612287 155.355425,91.3168958 155.748094,91.3295625 C156.140762,91.3422292 156.527092,91.430895 156.907094,91.5955625 C157.287096,91.76023 157.648092,92.0135608 157.990094,92.3555625 C158.332095,92.6975642 158.59176,93.1472264 158.769094,93.7045625 Z M157.287094,92.8305625 C157.18576,92.7038952 156.951429,92.792561 156.584094,93.0965625 C156.216759,93.400564 155.760763,93.8375597 155.216094,94.4075625 C154.671424,94.9775653 154.06343,95.648892 153.392094,96.4215625 C152.720757,97.194233 152.043097,97.9985583 151.359094,98.8345625 C149.763086,100.785239 147.964437,103.027216 145.963094,105.560563 C146.267095,105.307228 146.786423,104.844899 147.521094,104.173563 C148.255764,103.502226 149.066423,102.729567 149.953094,101.855562 C150.839765,100.981558 151.751756,100.056901 152.689094,99.0815625 C153.626432,98.1062243 154.45609,97.1879001 155.178094,96.3265625 C155.900097,95.4652249 156.470092,94.717899 156.888094,94.0845625 C157.306096,93.451226 157.439095,93.0332302 157.287094,92.8305625 Z M165.229094,107.840563 C165.583762,107.511228 165.868759,107.428895 166.084094,107.593563 C166.299428,107.75823 166.229762,108.055894 165.875094,108.486562 C165.672426,108.714564 165.393762,109.050227 165.039094,109.493562 C164.684425,109.936898 164.317096,110.38656 163.937094,110.842562 C163.557092,111.298565 163.177096,111.703894 162.797094,112.058562 C162.417092,112.413231 162.100428,112.615896 161.847094,112.666562 C161.517759,112.742563 161.05543,112.691897 160.460094,112.514562 C159.864757,112.337228 159.351763,112.071231 158.921094,111.716563 C158.591759,111.944564 158.275095,112.166228 157.971094,112.381563 C157.667092,112.596897 157.363095,112.755229 157.059094,112.856562 C156.780426,112.907229 156.438429,112.894563 156.033094,112.818562 C155.627758,112.742562 155.228762,112.596897 154.836094,112.381563 C154.443425,112.166228 154.095095,111.906564 153.791094,111.602563 C153.487092,111.298561 153.284428,110.943898 153.183094,110.538562 C153.08176,110.107894 153.189425,109.594899 153.506094,108.999562 C153.822762,108.404226 154.209091,107.840565 154.665094,107.308562 C155.121096,106.77656 155.596091,106.314231 156.090094,105.921562 C156.584096,105.528894 156.970426,105.319896 157.249094,105.294562 C157.426428,105.269229 157.648092,105.281896 157.914094,105.332562 C158.180095,105.383229 158.446092,105.471895 158.712094,105.598562 C158.978095,105.72523 159.218759,105.877228 159.434094,106.054563 C159.649428,106.231897 159.795093,106.434561 159.871094,106.662563 C160.225762,106.358561 160.529759,106.219229 160.783094,106.244563 C160.985761,106.295229 161.201093,106.358562 161.429094,106.434562 C161.657095,106.510563 161.866093,106.599229 162.056094,106.700563 C162.246095,106.801896 162.404426,106.928562 162.531094,107.080562 C162.657761,107.232563 162.708427,107.397228 162.683094,107.574562 C162.683094,107.77723 162.581761,108.049561 162.379094,108.391562 C162.176426,108.733564 161.961095,109.081894 161.733094,109.436563 C161.505093,109.791231 161.315095,110.107894 161.163094,110.386562 C161.011093,110.665231 160.98576,110.842562 161.087094,110.918563 C161.163094,110.969229 161.334092,110.91223 161.600094,110.747563 C161.866095,110.582895 162.189092,110.354897 162.569094,110.063563 C162.949096,109.772228 163.373425,109.436564 163.842094,109.056562 C164.310763,108.676561 164.773091,108.271231 165.229094,107.840563 Z M155.691094,111.488563 C155.969762,111.640563 156.318092,111.558231 156.736094,111.241563 C157.154096,110.924894 157.553092,110.525898 157.933094,110.044562 C158.313096,109.563227 158.636092,109.069232 158.902094,108.562562 C159.168095,108.055893 159.301094,107.675897 159.301094,107.422562 C159.19976,107.194561 159.022428,107.131229 158.769094,107.232563 C158.515759,107.333896 158.237095,107.523894 157.933094,107.802562 C157.629092,108.081231 157.318762,108.423227 157.002094,108.828563 C156.685426,109.233898 156.413095,109.620227 156.185094,109.987562 C155.957093,110.354898 155.786094,110.684228 155.672094,110.975562 C155.558093,111.266897 155.564426,111.437896 155.691094,111.488563 Z M174.083094,107.042563 C174.05776,107.16923 173.924762,107.289562 173.684094,107.403562 C173.443426,107.517563 173.133096,107.631562 172.753094,107.745563 C172.373092,107.859563 171.948763,107.979895 171.480094,108.106562 C171.011425,108.23323 170.523763,108.385228 170.017094,108.562562 C169.890426,108.841231 169.782761,109.119894 169.694094,109.398562 C169.605427,109.677231 169.624426,109.917895 169.751094,110.120563 C169.801761,110.24723 170.112091,110.215563 170.682094,110.025563 C171.252097,109.835562 171.885424,109.588564 172.582094,109.284562 C173.278764,108.980561 173.950091,108.676564 174.596094,108.372563 C175.242097,108.068561 175.666426,107.840563 175.869094,107.688563 C176.325096,107.359228 176.692426,107.200896 176.971094,107.213562 C177.249762,107.226229 177.211762,107.49856 176.857094,108.030563 C176.629093,108.283897 176.268096,108.606894 175.774094,108.999562 C175.280091,109.392231 174.73543,109.791227 174.140094,110.196562 C173.544757,110.601898 172.955763,110.981894 172.373094,111.336562 C171.790424,111.691231 171.309096,111.957228 170.929094,112.134563 C170.549092,112.311897 170.169096,112.35623 169.789094,112.267562 C169.409092,112.178895 169.060762,112.026897 168.744094,111.811563 C168.427425,111.596228 168.155095,111.374564 167.927094,111.146563 C167.699093,110.918561 167.559761,110.74123 167.509094,110.614563 C167.433093,110.513229 167.401427,110.39923 167.414094,110.272562 C167.42676,110.145895 167.44576,110.01923 167.471094,109.892562 C167.040425,110.171231 166.666762,110.51956 166.350094,110.937562 C166.033426,111.355565 165.799095,111.83056 165.647094,112.362562 C165.46976,112.514563 165.267095,112.577896 165.039094,112.552562 C164.811093,112.527229 164.589428,112.45123 164.374094,112.324562 C164.158759,112.197895 163.981428,112.039563 163.842094,111.849563 C163.70276,111.659562 163.633094,111.475897 163.633094,111.298563 C163.633094,111.070561 163.772426,110.627232 164.051094,109.968563 C164.329762,109.309893 164.703425,108.5309 165.172094,107.631563 C165.640763,106.732225 166.191757,105.731568 166.825094,104.629562 C167.45843,103.527557 168.142423,102.412901 168.877094,101.285562 C169.611764,100.158224 170.371756,99.0499013 171.157094,97.9605625 C171.942431,96.8712237 172.727756,95.8832336 173.513094,94.9965625 C174.298431,94.1098914 175.058423,93.349899 175.793094,92.7165625 C176.527764,92.083226 177.211757,91.6652302 177.845094,91.4625625 C178.123762,91.3612287 178.453092,91.3168958 178.833094,91.3295625 C179.213096,91.3422292 179.599425,91.430895 179.992094,91.5955625 C180.384762,91.76023 180.745759,92.0135608 181.075094,92.3555625 C181.404429,92.6975642 181.65776,93.1472264 181.835094,93.7045625 C181.936428,94.0845644 181.784429,94.6102258 181.379094,95.2815625 C180.973758,95.9528992 180.391098,96.7065583 179.631094,97.5425625 C178.87109,98.3785667 177.984432,99.2715577 176.971094,100.221563 C175.957755,101.171567 174.893766,102.121558 173.779094,103.071562 C172.664422,104.021567 171.549766,104.939891 170.435094,105.826562 C169.320422,106.713234 168.294432,107.498559 167.357094,108.182563 L166.673094,109.664563 C167.559765,108.955226 168.395756,108.296566 169.181094,107.688563 C169.839764,107.181893 170.492091,106.706898 171.138094,106.263563 C171.784097,105.820227 172.246426,105.547896 172.525094,105.446562 C172.702428,105.421229 172.886093,105.459229 173.076094,105.560563 C173.266095,105.661896 173.443426,105.794895 173.608094,105.959563 C173.772761,106.12423 173.899427,106.307895 173.988094,106.510562 C174.076761,106.71323 174.108427,106.890562 174.083094,107.042563 Z M180.429094,92.8305625 C180.32776,92.7038952 180.087096,92.792561 179.707094,93.0965625 C179.327092,93.400564 178.85843,93.8375597 178.301094,94.4075625 C177.743758,94.9775653 177.12943,95.648892 176.458094,96.4215625 C175.786757,97.194233 175.109097,97.9985583 174.425094,98.8345625 C172.829086,100.785239 171.030437,103.027216 169.029094,105.560563 C169.358429,105.307228 169.88409,104.844899 170.606094,104.173563 C171.328097,103.502226 172.132423,102.729567 173.019094,101.855562 C173.905765,100.981558 174.817756,100.056901 175.755094,99.0815625 C176.692432,98.1062243 177.528423,97.1879001 178.263094,96.3265625 C178.997764,95.4652249 179.574092,94.717899 179.992094,94.0845625 C180.410096,93.451226 180.555761,93.0332302 180.429094,92.8305625 Z" id="Shishak"></path>
        </g>
    </g>
</svg>