<?xml version="1.0" encoding="UTF-8"?>
<svg width="94px" height="30px" viewBox="0 0 94 30" version="1.1" xmlns="http://www.w3.org/2000/svg" xmlns:xlink="http://www.w3.org/1999/xlink">
    <!-- Generator: Sketch 52.1 (67048) - http://www.bohemiancoding.com/sketch -->
    <title>Group</title>
    <desc>Created with Sketch.</desc>
    <g id="Page-1" stroke="none" stroke-width="1" fill="none" fill-rule="evenodd">
        <g id="Artboard" transform="translate(-88.000000, -91.000000)">
            <g id="Group" transform="translate(88.000000, 91.000000)">
                <path d="M12.2110938,5.6305625 C13.0217645,5.22522714 14.0794206,4.74389862 15.3840938,4.1865625 C16.6887669,3.62922638 18.1074194,3.10989824 19.6400938,2.6285625 C21.1727681,2.14722676 22.7560856,1.73556421 24.3900938,1.3935625 C26.0241019,1.05156079 27.5694198,0.8805625 29.0260938,0.8805625 C30.4827677,0.8805625 31.7937546,1.10856022 32.9590937,1.5645625 C34.1244329,2.02056478 34.9984242,2.79322372 35.5810938,3.8825625 C35.8344283,4.36389824 35.8850945,4.82622695 35.7330937,5.2695625 C35.581093,5.71289805 35.2960958,6.13089387 34.8780938,6.5235625 C34.4600917,6.91623113 33.9597633,7.27089425 33.3770938,7.5875625 C32.7944242,7.90423075 32.1990968,8.18289463 31.5910937,8.4235625 C30.9830907,8.66423037 30.4130964,8.8478952 29.8810937,8.9745625 C29.3490911,9.1012298 28.9437618,9.1645625 28.6650937,9.1645625 C28.0317572,9.18989596 27.487096,9.12022999 27.0310937,8.9555625 C26.5750915,8.79089501 26.2330949,8.60089691 26.0050938,8.3855625 C25.7770926,8.17022809 25.6884268,7.96123018 25.7390937,7.7585625 C25.7897607,7.55589482 26.0050918,7.42922942 26.3850937,7.3785625 C26.6890953,7.32789558 27.1134244,7.23289653 27.6580938,7.0935625 C28.2027631,6.95422847 28.785424,6.78323018 29.4060937,6.5805625 C30.0267635,6.37789482 30.6410907,6.14356383 31.2490938,5.8775625 C31.8570968,5.61156117 32.3827582,5.34556383 32.8260937,5.0795625 C33.2694293,4.81356117 33.5797595,4.54123056 33.7570937,4.2625625 C33.934428,3.98389444 33.9090949,3.7178971 33.6810938,3.4645625 C33.1490911,2.93255984 32.325766,2.64756269 31.2110938,2.6095625 C30.0964215,2.57156231 28.8044344,2.72356079 27.3350937,3.0655625 C25.8657531,3.40756421 24.2824356,3.90155927 22.5850937,4.5475625 C20.8877519,5.19356573 19.177769,5.93455832 17.4550938,6.7705625 C15.7324185,7.60656668 14.0667685,8.49955775 12.4580938,9.4495625 C10.849419,10.3995672 9.39910021,11.355891 8.10709375,12.3185625 C6.81508729,13.281234 5.75109793,14.2185579 4.91509375,15.1305625 C4.07908957,16.0425671 3.58509451,16.8532256 3.43309375,17.5625625 C3.33175991,18.0438982 3.45842531,18.3225621 3.81309375,18.3985625 C4.16776219,18.4745629 4.59842455,18.4682296 5.10509375,18.3795625 C5.61176295,18.2908954 6.12475782,18.1578967 6.64409375,17.9805625 C7.16342968,17.8032283 7.53709261,17.6892294 7.76509375,17.6385625 C8.75309869,17.3852279 9.7854217,17.1002308 10.8620937,16.7835625 C11.9387658,16.4668942 13.021755,16.1755638 14.1110937,15.9095625 C15.2004325,15.6435612 16.2834217,15.4155635 17.3600938,15.2255625 C18.4367658,15.0355615 19.4944219,14.953229 20.5330938,14.9785625 C21.1410968,15.003896 21.8060901,15.1875608 22.5280937,15.5295625 C23.2500974,15.8715642 23.8834244,16.3212264 24.4280938,16.8785625 C24.9727631,17.4358986 25.3464261,18.0755589 25.5490937,18.7975625 C25.7517614,19.5195661 25.6377626,20.2732252 25.2070937,21.0585625 C24.725758,21.8945667 23.9847654,22.7305583 22.9840937,23.5665625 C21.9834221,24.4025667 20.8244337,25.1878922 19.5070937,25.9225625 C18.1897538,26.6572328 16.7837679,27.3095596 15.2890938,27.8795625 C13.7944196,28.4495654 12.3187677,28.8928942 10.8620937,29.2095625 C9.4054198,29.5262307 8.03110021,29.6908958 6.73909375,29.7035625 C5.44708729,29.7162292 4.34509831,29.5198979 3.43309375,29.1145625 C2.77442379,28.810561 2.21076276,28.3482323 1.74209375,27.7275625 C1.27342474,27.1068927 0.96309451,26.4482326 0.81109375,25.7515625 C0.65909299,25.0548924 0.70975915,24.3835657 0.96309375,23.7375625 C1.21642835,23.0915593 1.72308995,22.5785644 2.48309375,22.1985625 C2.73642835,22.0972287 3.01509223,22.0972287 3.31909375,22.1985625 C3.62309527,22.2998963 3.88275934,22.4455616 4.09809375,22.6355625 C4.31342816,22.8255635 4.4527601,23.0282281 4.51609375,23.2435625 C4.5794274,23.4588969 4.50976143,23.6298952 4.30709375,23.7565625 C3.39508919,24.3392321 2.79976181,24.8458937 2.52109375,25.2765625 C2.24242569,25.7072313 2.19175953,26.0618944 2.36909375,26.3405625 C2.54642797,26.6192306 2.90109109,26.8282285 3.43309375,26.9675625 C3.96509641,27.1068965 4.58575687,27.1765625 5.29509375,27.1765625 C6.00443063,27.1765625 6.75175649,27.1258963 7.53709375,27.0245625 C8.32243101,26.9232287 9.06975687,26.7585636 9.77909375,26.5305625 C11.9324378,25.8718925 14.0540833,25.0295676 16.1440937,24.0035625 C18.2341042,22.9775574 20.2290842,21.5905712 22.1290937,19.8425625 C23.0664318,18.9812249 23.5160939,18.3542311 23.4780937,17.9615625 C23.4400936,17.5688939 23.0727639,17.3472294 22.3760937,17.2965625 C21.6794236,17.2458956 20.7357664,17.3218948 19.5450938,17.5245625 C18.3544211,17.7272302 17.0814339,17.9742277 15.7260938,18.2655625 C14.3707536,18.5568973 13.0091006,18.854561 11.6410937,19.1585625 C10.2730869,19.462564 9.08243215,19.6905617 8.06909375,19.8425625 C7.58775801,19.9185629 7.0620966,19.9502292 6.49209375,19.9375625 C5.9220909,19.9248958 5.36476314,19.8742296 4.82009375,19.7855625 C4.27542436,19.6968954 3.75609622,19.5575635 3.26209375,19.3675625 C2.76809128,19.1775616 2.35642873,18.930564 2.02709375,18.6265625 C1.03908881,17.7398914 0.67175915,16.7392347 0.92509375,15.6245625 C1.17842835,14.5098903 1.83075516,13.3699017 2.88209375,12.2045625 C3.93343234,11.0392233 5.28875212,9.8865682 6.94809375,8.7465625 C8.60743538,7.6065568 10.3617512,6.56790052 12.2110938,5.6305625 Z" id="Path" fill="#616161"></path>
                <path d="M44.6630937,2.7045625 C44.789761,3.0845644 44.6440958,3.61022581 44.2260937,4.2815625 C43.8080917,4.95289919 43.2190975,5.70655832 42.4590937,6.5425625 C41.6990899,7.37856668 40.8124321,8.27155775 39.7990937,9.2215625 C38.7857553,10.1715673 37.721766,11.1215577 36.6070937,12.0715625 C35.4924215,13.0215673 34.3714327,13.9398914 33.2440937,14.8265625 C32.1167548,15.7132336 31.0844318,16.4985591 30.1470937,17.1825625 C29.9190926,17.5878979 29.7417611,17.9298944 29.6150937,18.2085625 C29.4884264,18.4618971 29.4060939,18.6645617 29.3680937,18.8165625 C29.3300936,18.9685633 29.3744264,18.9812298 29.5010937,18.8545625 C29.6530945,18.7278952 29.9570915,18.4555646 30.4130937,18.0375625 C30.869096,17.6195604 31.3630911,17.1762315 31.8950937,16.7075625 C32.4270964,16.2388935 32.9527578,15.7955646 33.4720937,15.3775625 C33.9914297,14.9595604 34.4030922,14.6872298 34.7070937,14.5605625 C34.9857618,14.4338952 35.2517591,14.4212287 35.5050937,14.5225625 C35.7584283,14.6238963 35.9864261,14.7822281 36.1890937,14.9975625 C36.3917614,15.2128969 36.5564264,15.4408946 36.6830937,15.6815625 C36.809761,15.9222304 36.8984268,16.1185617 36.9490937,16.2705625 C36.9997607,16.4478967 36.866762,16.7392271 36.5500937,17.1445625 C36.2334255,17.5498979 35.8914289,17.9742269 35.5240937,18.4175625 C35.1567586,18.860898 34.8400951,19.2598941 34.5740937,19.6145625 C34.3080924,19.9692309 34.251093,20.1845621 34.4030937,20.2605625 C34.5044276,20.285896 34.7134255,20.2288965 35.0300937,20.0895625 C35.346762,19.9502285 35.7140917,19.7602304 36.1320937,19.5195625 C36.5500958,19.2788946 36.999758,19.0002307 37.4810937,18.6835625 C37.9624295,18.3668942 38.4184249,18.0628973 38.8490937,17.7715625 C39.2797626,17.4802277 39.6597588,17.2142304 39.9890937,16.9735625 C40.3184287,16.7328946 40.5464265,16.5492298 40.6730937,16.4225625 C41.1037626,16.0932275 41.4520924,16.010895 41.7180937,16.1755625 C41.9840951,16.34023 41.9904283,16.5872275 41.7370937,16.9165625 C41.6104264,17.0685633 41.3507624,17.3598937 40.9580937,17.7905625 C40.5654251,18.2212313 40.0967631,18.68356 39.5520937,19.1775625 C39.0074244,19.671565 38.4247635,20.1275604 37.8040937,20.5455625 C37.183424,20.9635646 36.5944299,21.2485617 36.0370937,21.4005625 C35.3024234,21.5778967 34.6754297,21.58423 34.1560937,21.4195625 C33.6367578,21.254895 33.2250953,21.0078975 32.9210937,20.6785625 C32.6170922,20.3492275 32.4080943,19.9755646 32.2940937,19.5575625 C32.1800932,19.1395604 32.1864264,18.7532309 32.3130938,18.3985625 C31.9330918,18.7532309 31.5657622,19.0698944 31.2110937,19.3485625 C30.9070922,19.6272306 30.6030953,19.8932279 30.2990937,20.1465625 C29.9950922,20.3998971 29.754428,20.6025617 29.5770937,20.7545625 C29.3997595,20.9318967 29.152762,21.0775619 28.8360937,21.1915625 C28.5194255,21.3055631 28.1900955,21.3688958 27.8480937,21.3815625 C27.506092,21.3942292 27.2020951,21.3435631 26.9360937,21.2295625 C26.6700924,21.1155619 26.5117607,20.906564 26.4610937,20.6025625 C26.4104268,20.298561 26.6004249,19.6272344 27.0310937,18.5885625 C27.4617626,17.5498906 28.0634232,16.3339028 28.8360937,14.9405625 C29.6087643,13.5472222 30.5017553,12.0589037 31.5150937,10.4755625 C32.5284321,8.89222125 33.5734217,7.4039028 34.6500937,6.0105625 C35.7267658,4.6172222 36.7907552,3.4139009 37.8420937,2.4005625 C38.8934323,1.3872241 39.8370896,0.74123056 40.6730937,0.4625625 C40.9264284,0.36122866 41.2494251,0.31689577 41.6420938,0.3295625 C42.0347624,0.34222923 42.4210918,0.43089501 42.8010937,0.5955625 C43.1810956,0.76022999 43.542092,1.01356079 43.8840937,1.3555625 C44.2260955,1.69756421 44.4857595,2.14722638 44.6630937,2.7045625 Z" id="Path" fill="#616161"></path>
                <path d="M43.1810938,1.8305625 C43.0797599,1.7038952 42.8454289,1.79256098 42.4780938,2.0965625 C42.1107586,2.40056402 41.6547631,2.83755965 41.1100938,3.4075625 C40.5654244,3.97756535 39.9574304,4.64889197 39.2860937,5.4215625 C38.6147571,6.19423303 37.9370972,6.99855832 37.2530938,7.8345625 C35.6570858,9.78523892 33.8584371,12.0272165 31.8570937,14.5605625 C32.1610953,14.3072279 32.6804234,13.8448992 33.4150938,13.1735625 C34.1497641,12.5022258 34.9604227,11.7295669 35.8470938,10.8555625 C36.7337649,9.98155813 37.6457557,9.05690071 38.5830937,8.0815625 C39.5204318,7.10622429 40.3500901,6.18790014 41.0720938,5.3265625 C41.7940974,4.46522486 42.3640917,3.717899 42.7820938,3.0845625 C43.2000958,2.451226 43.3330945,2.03323018 43.1810938,1.8305625 Z" id="Path" fill="#FFFFFF"></path>
                <path d="M44.9290938,13.1925625 C44.777093,13.1925625 44.5870949,13.1545629 44.3590938,13.0785625 C44.1310926,13.0025621 43.9220947,12.9012298 43.7320938,12.7745625 C43.5420928,12.6478952 43.3900943,12.50223 43.2760938,12.3375625 C43.1620932,12.172895 43.1177603,12.0018967 43.1430938,11.8245625 C43.1684272,11.6725617 43.2380932,11.4698971 43.3520938,11.2165625 C43.4660943,10.9632279 43.599093,10.7162304 43.7510938,10.4755625 C43.9030945,10.2348946 44.0740928,10.0258967 44.2640938,9.8485625 C44.4540947,9.67122828 44.6377595,9.55722942 44.8150938,9.5065625 C44.992428,9.48122904 45.2077592,9.51289539 45.4610938,9.6015625 C45.7144284,9.69022961 45.9550926,9.81689501 46.1830938,9.9815625 C46.4110949,10.14623 46.5947597,10.3235615 46.7340938,10.5135625 C46.8734278,10.7035634 46.9304272,10.8618952 46.9050938,10.9885625 C46.9050938,11.1405633 46.8290945,11.3368946 46.6770937,11.5775625 C46.525093,11.8182304 46.3477614,12.0525614 46.1450938,12.2805625 C45.9424261,12.5085636 45.7270949,12.7112283 45.4990938,12.8885625 C45.2710926,13.0658967 45.0810945,13.167229 44.9290938,13.1925625 Z" id="Path" fill="#616161"></path>
                <path d="M46.3730937,16.9165625 C46.8797629,16.4605602 47.2597591,16.3212283 47.5130937,16.4985625 C47.7664283,16.6758967 47.665096,17.0432264 47.2090937,17.6005625 C46.9050922,17.9805644 46.5377626,18.3795604 46.1070937,18.7975625 C45.6764249,19.2155646 45.2394293,19.6082273 44.7960937,19.9755625 C44.3527582,20.3428977 43.9410956,20.6595612 43.5610937,20.9255625 C43.1810918,21.1915638 42.8897614,21.3498956 42.6870937,21.4005625 C42.4084257,21.425896 42.0854289,21.3752298 41.7180937,21.2485625 C41.3507586,21.1218952 40.9960955,20.9318971 40.6540937,20.6785625 C40.312092,20.4252279 40.0334282,20.1148977 39.8180937,19.7475625 C39.6027593,19.3802273 39.5204268,18.9685648 39.5710937,18.5125625 C39.6217607,18.0818937 39.7420928,17.6068984 39.9320937,17.0875625 C40.1220947,16.5682266 40.3437591,16.0932313 40.5970937,15.6625625 C40.8504283,15.2318937 41.1037591,14.8772306 41.3570937,14.5985625 C41.6104283,14.3198944 41.8384261,14.193229 42.0410937,14.2185625 C42.218428,14.2692294 42.4084261,14.3388954 42.6110937,14.4275625 C42.8137614,14.5162296 42.9974263,14.6175619 43.1620937,14.7315625 C43.3267612,14.8455631 43.4597599,14.9785617 43.5610937,15.1305625 C43.6624276,15.2825633 43.7004272,15.4598948 43.6750937,15.6625625 C43.6497603,15.8652302 43.5357614,16.1628939 43.3330937,16.5555625 C43.1304261,16.9482311 42.9277614,17.3472271 42.7250937,17.7525625 C42.5224261,18.1578979 42.3450945,18.5252275 42.1930937,18.8545625 C42.041093,19.1838975 42.0157599,19.3865621 42.1170937,19.4625625 C42.1930941,19.5132294 42.376759,19.4815631 42.6680937,19.3675625 C42.9594285,19.2535619 43.3014251,19.0825636 43.6940937,18.8545625 C44.0867624,18.6265614 44.5174247,18.3478975 44.9860937,18.0185625 C45.4547628,17.6892275 45.9170915,17.3218979 46.3730937,16.9165625 Z" id="Path" fill="#616161"></path>
                <path d="M48.3490938,16.8405625 C48.8810964,16.7645621 49.3814247,16.7582288 49.8500937,16.8215625 C50.3187628,16.8848962 50.7367586,16.9925617 51.1040938,17.1445625 C51.4714289,17.2965633 51.7627593,17.4992279 51.9780938,17.7525625 C52.1934282,18.0058971 52.3010938,18.2972275 52.3010938,18.6265625 C52.3010938,18.9558975 52.1934282,19.3485602 51.9780938,19.8045625 C51.7627593,20.2605648 51.4840955,20.7038937 51.1420938,21.1345625 C50.800092,21.5652313 50.4074293,21.9578941 49.9640938,22.3125625 C49.5207582,22.6672309 49.0964291,22.8952287 48.6910938,22.9965625 C48.2604249,23.0978963 47.8424291,23.0852298 47.4370938,22.9585625 C47.0317584,22.8318952 46.670762,22.6418971 46.3540938,22.3885625 C46.0374255,22.1352279 45.7777614,21.8502308 45.5750938,21.5335625 C45.3724261,21.2168942 45.2710938,20.9318971 45.2710938,20.6785625 C45.2710938,20.5012283 45.3407597,20.2985636 45.4800938,20.0705625 C45.6194278,19.8425614 45.8030926,19.6208969 46.0310938,19.4055625 C46.2590949,19.1902281 46.5124257,18.9875635 46.7910938,18.7975625 C47.0697618,18.6075615 47.3484257,18.4492298 47.6270938,18.3225625 C48.0577626,18.1198948 48.3110934,18.1135616 48.3870938,18.3035625 C48.4630941,18.4935634 48.3744284,18.7278944 48.1210938,19.0065625 C48.0450934,19.0825629 47.9247612,19.2155615 47.7600938,19.4055625 L47.2660937,19.9755625 C47.1014263,20.1655635 46.9620943,20.3492283 46.8480938,20.5265625 C46.7340932,20.7038967 46.7150934,20.8305621 46.7910938,20.9065625 C46.9177611,21.0078963 47.1394255,20.9508969 47.4560938,20.7355625 C47.772762,20.5202281 48.0894255,20.2415642 48.4060938,19.8995625 C48.722762,19.5575608 49.0014259,19.2155642 49.2420937,18.8735625 C49.4827616,18.5315608 49.5904272,18.2718967 49.5650938,18.0945625 C49.5144268,17.9172283 49.3370953,17.8348958 49.0330938,17.8475625 C48.7290922,17.8602292 48.3870957,17.8728958 48.0070938,17.8855625 C47.6270919,17.8982292 47.2407624,17.8728962 46.8480938,17.8095625 C46.4554251,17.7462288 46.1577614,17.562564 45.9550938,17.2585625 C45.7270926,16.9292275 45.6320936,16.5555646 45.6700938,16.1375625 C45.7080939,15.7195604 45.8284261,15.3205644 46.0310938,14.9405625 C46.2337614,14.5605606 46.4934255,14.2375638 46.8100938,13.9715625 C47.126762,13.7055612 47.4370922,13.5472294 47.7410938,13.4965625 C47.9437614,13.471229 48.1590926,13.5092287 48.3870938,13.6105625 C48.6150949,13.7118963 48.8240928,13.844895 49.0140938,14.0095625 C49.2040947,14.17423 49.3624265,14.3578948 49.4890938,14.5605625 C49.6157611,14.7632302 49.6790938,14.9532283 49.6790938,15.1305625 C49.6790938,15.4852309 49.5144287,15.7765614 49.1850938,16.0045625 C48.8557588,16.2325636 48.5770949,16.5112275 48.3490938,16.8405625 Z" id="Path" fill="#616161"></path>
                <path d="M70.7690938,2.7045625 C70.8957611,3.0845644 70.7500958,3.61022581 70.3320938,4.2815625 C69.9140917,4.95289919 69.3250976,5.70655832 68.5650938,6.5425625 C67.80509,7.37856668 66.9184322,8.27155775 65.9050937,9.2215625 C64.8917553,10.1715673 63.827766,11.1215577 62.7130937,12.0715625 C61.5984215,13.0215673 60.4774327,13.9398914 59.3500937,14.8265625 C58.2227548,15.7132336 57.1904318,16.4985591 56.2530938,17.1825625 C56.0250926,17.5878979 55.8477611,17.9298944 55.7210938,18.2085625 C55.5944265,18.4618971 55.5120939,18.6645617 55.4740938,18.8165625 C55.4360936,18.9685633 55.4804265,18.9812298 55.6070937,18.8545625 C55.7590945,18.7278952 56.0630915,18.4555646 56.5190938,18.0375625 C56.975096,17.6195604 57.4690911,17.1762315 58.0010938,16.7075625 C58.5330964,16.2388935 59.0587578,15.7955646 59.5780938,15.3775625 C60.0974297,14.9595604 60.5090922,14.6872298 60.8130938,14.5605625 C61.0917618,14.4338952 61.3577591,14.4212287 61.6110938,14.5225625 C61.8644284,14.6238963 62.0924261,14.7822281 62.2950938,14.9975625 C62.4977614,15.2128969 62.6624265,15.4408946 62.7890938,15.6815625 C62.9157611,15.9222304 63.0044268,16.1185617 63.0550938,16.2705625 C63.1057607,16.4478967 62.972762,16.7392271 62.6560938,17.1445625 C62.3394255,17.5498979 61.9974289,17.9742269 61.6300938,18.4175625 C61.2627586,18.860898 60.9460951,19.2598941 60.6800938,19.6145625 C60.4140924,19.9692309 60.357093,20.1845621 60.5090938,20.2605625 C60.6104276,20.285896 60.8194255,20.2288965 61.1360937,20.0895625 C61.452762,19.9502285 61.8200917,19.7602304 62.2380937,19.5195625 C62.6560958,19.2788946 63.105758,19.0002307 63.5870938,18.6835625 C64.0684295,18.3668942 64.5244249,18.0628973 64.9550938,17.7715625 C65.3857626,17.4802277 65.7657588,17.2142304 66.0950937,16.9735625 C66.4244287,16.7328946 66.6524265,16.5492298 66.7790938,16.4225625 C67.2097626,16.0932275 67.5580924,16.010895 67.8240938,16.1755625 C68.0900951,16.34023 68.0964283,16.5872275 67.8430937,16.9165625 C67.7164265,17.0685633 67.4567624,17.3598937 67.0640937,17.7905625 C66.6714251,18.2212313 66.2027631,18.68356 65.6580938,19.1775625 C65.1134244,19.671565 64.5307635,20.1275604 63.9100937,20.5455625 C63.289424,20.9635646 62.7004299,21.2485617 62.1430937,21.4005625 C61.4084234,21.5778967 60.7814297,21.58423 60.2620937,21.4195625 C59.7427578,21.254895 59.3310953,21.0078975 59.0270938,20.6785625 C58.7230922,20.3492275 58.5140943,19.9755646 58.4000938,19.5575625 C58.2860932,19.1395604 58.2924265,18.7532309 58.4190938,18.3985625 C58.0390919,18.7532309 57.6717622,19.0698944 57.3170938,19.3485625 C57.0130922,19.6272306 56.7090953,19.8932279 56.4050937,20.1465625 C56.1010922,20.3998971 55.860428,20.6025617 55.6830938,20.7545625 C55.5057595,20.9318967 55.258762,21.0775619 54.9420938,21.1915625 C54.6254255,21.3055631 54.2960955,21.3688958 53.9540938,21.3815625 C53.612092,21.3942292 53.3080951,21.3435631 53.0420937,21.2295625 C52.7760924,21.1155619 52.6177607,20.906564 52.5670938,20.6025625 C52.5164268,20.298561 52.7064249,19.6272344 53.1370937,18.5885625 C53.5677626,17.5498906 54.1694232,16.3339028 54.9420938,14.9405625 C55.7147643,13.5472222 56.6077553,12.0589037 57.6210938,10.4755625 C58.6344322,8.89222125 59.6794217,7.4039028 60.7560937,6.0105625 C61.8327658,4.6172222 62.8967552,3.4139009 63.9480938,2.4005625 C64.9994323,1.3872241 65.9430896,0.74123056 66.7790938,0.4625625 C67.0324284,0.36122866 67.3554251,0.31689577 67.7480938,0.3295625 C68.1407624,0.34222923 68.5270918,0.43089501 68.9070938,0.5955625 C69.2870957,0.76022999 69.648092,1.01356079 69.9900938,1.3555625 C70.3320955,1.69756421 70.5917595,2.14722638 70.7690938,2.7045625 Z" id="Path" fill="#616161"></path>
                <path d="M69.2870937,1.8305625 C69.1857599,1.7038952 68.9514289,1.79256098 68.5840937,2.0965625 C68.2167586,2.40056402 67.7607631,2.83755965 67.2160937,3.4075625 C66.6714244,3.97756535 66.0634304,4.64889197 65.3920938,5.4215625 C64.7207571,6.19423303 64.0430972,6.99855832 63.3590937,7.8345625 C61.7630858,9.78523892 59.9644371,12.0272165 57.9630937,14.5605625 C58.2670953,14.3072279 58.7864234,13.8448992 59.5210938,13.1735625 C60.2557641,12.5022258 61.0664226,11.7295669 61.9530937,10.8555625 C62.8397648,9.98155813 63.7517557,9.05690071 64.6890937,8.0815625 C65.6264318,7.10622429 66.4560901,6.18790014 67.1780938,5.3265625 C67.9000974,4.46522486 68.4700917,3.717899 68.8880937,3.0845625 C69.3060958,2.451226 69.4390945,2.03323018 69.2870937,1.8305625 Z" id="Path" fill="#FFFFFF"></path>
                <path d="M77.2290938,16.8405625 C77.5837622,16.5112275 77.8687593,16.428895 78.0840938,16.5935625 C78.2994282,16.75823 78.2297622,17.0558937 77.8750938,17.4865625 C77.6724261,17.7145636 77.3937622,18.0502269 77.0390938,18.4935625 C76.6844253,18.936898 76.3170956,19.3865602 75.9370938,19.8425625 C75.5570919,20.2985648 75.1770957,20.7038941 74.7970937,21.0585625 C74.4170919,21.4132309 74.1004284,21.6158956 73.8470937,21.6665625 C73.5177588,21.7425629 73.0554301,21.6918967 72.4600937,21.5145625 C71.8647574,21.3372283 71.3517626,21.0712309 70.9210938,20.7165625 C70.5917588,20.9445636 70.2750953,21.1662281 69.9710938,21.3815625 C69.6670922,21.5968969 69.3630953,21.7552287 69.0590937,21.8565625 C68.7804257,21.9072294 68.4384291,21.8945629 68.0330938,21.8185625 C67.6277584,21.7425621 67.2287624,21.5968969 66.8360938,21.3815625 C66.4434251,21.1662281 66.0950953,20.906564 65.7910938,20.6025625 C65.4870922,20.298561 65.2844276,19.9438979 65.1830938,19.5385625 C65.0817599,19.1078937 65.1894255,18.5948988 65.5060937,17.9995625 C65.822762,17.4042262 66.2090915,16.8405652 66.6650937,16.3085625 C67.121096,15.7765598 67.5960913,15.3142311 68.0900937,14.9215625 C68.5840962,14.5288939 68.9704257,14.319896 69.2490937,14.2945625 C69.426428,14.269229 69.6480924,14.2818956 69.9140938,14.3325625 C70.1800951,14.3832294 70.4460924,14.4718952 70.7120938,14.5985625 C70.9780951,14.7252298 71.2187593,14.8772283 71.4340937,15.0545625 C71.6494282,15.2318967 71.7950934,15.4345614 71.8710938,15.6625625 C72.2257622,15.358561 72.5297592,15.219229 72.7830938,15.2445625 C72.9857614,15.2952294 73.2010926,15.3585621 73.4290937,15.4345625 C73.6570949,15.5105629 73.8660928,15.5992287 74.0560938,15.7005625 C74.2460947,15.8018963 74.4044265,15.9285617 74.5310937,16.0805625 C74.6577611,16.2325633 74.7084272,16.3972283 74.6830938,16.5745625 C74.6830938,16.7772302 74.5817614,17.0495608 74.3790938,17.3915625 C74.1764261,17.7335642 73.9610949,18.0818941 73.7330938,18.4365625 C73.5050926,18.7912309 73.3150945,19.1078944 73.1630938,19.3865625 C73.011093,19.6652306 72.9857599,19.8425621 73.0870938,19.9185625 C73.1630941,19.9692294 73.3340924,19.91223 73.6000937,19.7475625 C73.8660951,19.582895 74.1890919,19.3548973 74.5690938,19.0635625 C74.9490957,18.7722277 75.3734247,18.4365644 75.8420938,18.0565625 C76.3107628,17.6765606 76.7730915,17.2712313 77.2290938,16.8405625 Z" id="Path" fill="#616161"></path>
                <path d="M67.6910937,20.4885625 C67.9697618,20.6405633 68.3180917,20.5582308 68.7360938,20.2415625 C69.1540958,19.9248942 69.5530918,19.5258982 69.9330938,19.0445625 C70.3130957,18.5632268 70.6360924,18.0692317 70.9020938,17.5625625 C71.1680951,17.0558933 71.3010938,16.6758971 71.3010938,16.4225625 C71.1997599,16.1945614 71.0224284,16.1312287 70.7690937,16.2325625 C70.5157592,16.3338963 70.2370953,16.5238944 69.9330938,16.8025625 C69.6290922,17.0812306 69.318762,17.4232271 69.0020938,17.8285625 C68.6854255,18.2338979 68.4130949,18.6202273 68.1850938,18.9875625 C67.9570926,19.3548977 67.7860943,19.6842277 67.6720937,19.9755625 C67.5580932,20.2668973 67.5644265,20.4378956 67.6910937,20.4885625 Z" id="Path" fill="#FFFFFF"></path>
                <path d="M86.0830938,16.0425625 C86.0577603,16.1692298 85.9247616,16.2895619 85.6840938,16.4035625 C85.4434259,16.5175631 85.1330957,16.6315619 84.7530938,16.7455625 C84.3730919,16.8595631 83.9487628,16.9798952 83.4800938,17.1065625 C83.0114247,17.2332298 82.523763,17.3852283 82.0170938,17.5625625 C81.8904265,17.8412306 81.7827609,18.1198944 81.6940938,18.3985625 C81.6054266,18.6772306 81.6244265,18.9178948 81.7510938,19.1205625 C81.8017607,19.2472298 82.1120909,19.2155634 82.6820938,19.0255625 C83.2520966,18.8355615 83.8854236,18.588564 84.5820938,18.2845625 C85.2787639,17.980561 85.9500905,17.676564 86.5960938,17.3725625 C87.242097,17.068561 87.6664261,16.8405633 87.8690938,16.6885625 C88.325096,16.3592275 88.6924257,16.2008958 88.9710938,16.2135625 C89.2497618,16.2262292 89.2117622,16.4985598 88.8570938,17.0305625 C88.6290926,17.2838971 88.2680962,17.6068939 87.7740938,17.9995625 C87.2800913,18.3922311 86.7354301,18.7912271 86.1400938,19.1965625 C85.5447574,19.6018979 84.9557633,19.9818941 84.3730938,20.3365625 C83.7904242,20.6912309 83.3090957,20.9572283 82.9290938,21.1345625 C82.5490919,21.3118967 82.1690957,21.3562296 81.7890938,21.2675625 C81.4090919,21.1788954 81.060762,21.0268969 80.7440938,20.8115625 C80.4274255,20.5962281 80.1550949,20.3745636 79.9270938,20.1465625 C79.6990926,19.9185614 79.5597607,19.7412298 79.5090938,19.6145625 C79.4330934,19.5132287 79.401427,19.3992298 79.4140938,19.2725625 C79.4267605,19.1458952 79.4457603,19.0192298 79.4710938,18.8925625 C79.0404249,19.1712306 78.666762,19.5195604 78.3500938,19.9375625 C78.0334255,20.3555646 77.7990945,20.8305598 77.6470938,21.3625625 C77.4697595,21.5145633 77.2670949,21.577896 77.0390938,21.5525625 C76.8110926,21.527229 76.5894282,21.4512298 76.3740938,21.3245625 C76.1587593,21.1978952 75.9814278,21.0395634 75.8420938,20.8495625 C75.7027597,20.6595615 75.6330938,20.4758967 75.6330938,20.2985625 C75.6330938,20.0705614 75.7724257,19.6272325 76.0510938,18.9685625 C76.3297618,18.3098925 76.7034247,17.5309003 77.1720938,16.6315625 C77.6407628,15.7322247 78.1917573,14.731568 78.8250938,13.6295625 C79.4584303,12.527557 80.1424234,11.4129015 80.8770938,10.2855625 C81.6117641,9.15822353 82.3717565,8.04990128 83.1570938,6.9605625 C83.942431,5.87122372 84.7277565,4.8832336 85.5130938,3.9965625 C86.298431,3.1098914 87.0584234,2.349899 87.7930938,1.7165625 C88.5277641,1.083226 89.2117573,0.66523018 89.8450938,0.4625625 C90.1237618,0.36122866 90.4530919,0.31689577 90.8330938,0.3295625 C91.2130957,0.34222923 91.5994251,0.43089501 91.9920938,0.5955625 C92.3847624,0.76022999 92.7457588,1.01356079 93.0750938,1.3555625 C93.4044287,1.69756421 93.6577595,2.14722638 93.8350938,2.7045625 C93.9364276,3.0845644 93.7844291,3.61022581 93.3790938,4.2815625 C92.9737584,4.95289919 92.3910976,5.70655832 91.6310938,6.5425625 C90.87109,7.37856668 89.9844322,8.27155775 88.9710938,9.2215625 C87.9577554,10.1715673 86.893766,11.1215577 85.7790938,12.0715625 C84.6644215,13.0215672 83.549766,13.9398914 82.4350938,14.8265625 C81.3204215,15.7132336 80.2944318,16.4985591 79.3570938,17.1825625 L78.6730938,18.6645625 C79.5597649,17.9552256 80.3957565,17.2965655 81.1810938,16.6885625 C81.8397637,16.1818933 82.4920905,15.7068981 83.1380938,15.2635625 C83.784097,14.820227 84.2464257,14.5478963 84.5250938,14.4465625 C84.702428,14.421229 84.8860928,14.4592287 85.0760938,14.5605625 C85.2660947,14.6618963 85.4434263,14.794895 85.6080938,14.9595625 C85.7727612,15.12423 85.8994266,15.3078948 85.9880938,15.5105625 C86.0767609,15.7132302 86.1084272,15.8905617 86.0830938,16.0425625 Z" id="Path" fill="#616161"></path>
                <path d="M92.4290937,1.8305625 C92.3277599,1.7038952 92.0870956,1.79256098 91.7070938,2.0965625 C91.3270918,2.40056402 90.8584299,2.83755965 90.3010938,3.4075625 C89.7437576,3.97756535 89.1294304,4.64889197 88.4580937,5.4215625 C87.7867571,6.19423303 87.1090972,6.99855832 86.4250937,7.8345625 C84.8290858,9.78523892 83.0304371,12.0272165 81.0290938,14.5605625 C81.3584287,14.3072279 81.8840901,13.8448992 82.6060938,13.1735625 C83.3280974,12.5022258 84.1324227,11.7295669 85.0190938,10.8555625 C85.9057649,9.98155813 86.8177557,9.05690071 87.7550938,8.0815625 C88.6924318,7.10622429 89.5284234,6.18790014 90.2630937,5.3265625 C90.9977641,4.46522486 91.5740917,3.717899 91.9920937,3.0845625 C92.4100958,2.451226 92.5557611,2.03323018 92.4290937,1.8305625 Z" id="Path" fill="#FFFFFF"></path>
            </g>
        </g>
    </g>
</svg>