<?xml version="1.0" encoding="UTF-8"?>
<svg width="140px" height="45px" viewBox="0 0 140 45" version="1.1" xmlns="http://www.w3.org/2000/svg" xmlns:xlink="http://www.w3.org/1999/xlink">
    <!-- Generator: Sketch 52.1 (67048) - http://www.bohemiancoding.com/sketch -->
    <title>Group 2</title>
    <desc>Created with Sketch.</desc>
    <g id="Page-1" stroke="none" stroke-width="1" fill="none" fill-rule="evenodd">
        <g id="Artboard" transform="translate(-83.000000, -88.000000)">
            <g id="Group-2" transform="translate(83.308594, 88.429688)">
                <path d="M17.5706545,8.16160009 C18.7825727,7.555641 20.3637235,6.83607538 22.3141543,6.00288164 C24.2645851,5.16968789 26.3854101,4.39331446 28.6766929,3.67373804 C30.9679757,2.95416163 33.3349678,2.33874366 35.7777404,1.82746568 C38.220513,1.3161877 40.5306973,1.06055255 42.7083628,1.06055255 C44.8860283,1.06055255 46.8458978,1.40139942 48.5880302,2.08310339 C50.3301626,2.76480736 51.6367422,3.91989955 52.5078084,5.54841459 C52.8865329,6.26799101 52.9622766,6.95915272 52.7350419,7.62192048 C52.5078073,8.28468823 52.0817487,8.90957416 51.4568534,9.49659703 C50.8319581,10.0836199 50.0839886,10.6138261 49.2129224,11.0872317 C48.3418562,11.5606372 47.4518671,11.9772278 46.5429285,12.337016 C45.6339899,12.6968043 44.7818727,12.9713753 43.9865514,13.1607376 C43.1912301,13.3500998 42.5852801,13.4447795 42.1686832,13.4447795 C41.2218721,13.4826519 40.4076268,13.3785042 39.7259228,13.1323334 C39.0442189,12.8861625 38.5329486,12.6021234 38.1920966,12.2802077 C37.8512446,11.9582919 37.718693,11.6458489 37.7944379,11.3428694 C37.8701828,11.0398898 38.1920937,10.8505305 38.7601804,10.7747856 C39.2146497,10.6990407 39.8490036,10.5570212 40.6632611,10.3487227 C41.4775186,10.1404243 42.3485718,9.88478914 43.2764466,9.5818096 C44.2043215,9.27883005 45.1227144,8.92851521 46.0316531,8.53085456 C46.9405917,8.13319391 47.7264331,7.73553922 48.3892008,7.33787857 C49.0519686,6.94021792 49.5158991,6.53309527 49.7810062,6.1164984 C50.0461133,5.69990152 50.0082414,5.30224684 49.6673894,4.92352241 C48.8720681,4.12820111 47.6412322,3.70214252 45.9748447,3.64533385 C44.3084572,3.58852519 42.3769916,3.81575644 40.1803899,4.32703442 C37.9837882,4.8383124 35.616796,5.57681395 33.0793423,6.54256125 C30.5418887,7.50830854 27.9855371,8.61606088 25.410211,9.8658515 C22.8348849,11.1156421 20.3448091,12.4506257 17.939909,13.8708423 C15.5350089,15.2910589 13.366844,16.7207222 11.4353494,18.159875 C9.50385485,19.5990279 7.9132361,21.0002872 6.66344549,22.3636952 C5.41365487,23.7271031 4.67515331,24.9390031 4.44791865,25.9994315 C4.29642888,26.7190079 4.48578826,27.1355986 5.01600246,27.2492159 C5.54621666,27.3628332 6.19003853,27.3533652 6.94748739,27.2208117 C7.70493625,27.0882581 8.47184171,26.8894308 9.24822679,26.6243237 C10.0246119,26.3592166 10.583222,26.1887932 10.924074,26.1130483 C12.4010993,25.7343238 13.9443782,25.3082653 15.553957,24.8348597 C17.1635358,24.3614542 18.7825585,23.9259276 20.4110735,23.528267 C22.0395886,23.1306063 23.6586112,22.7897594 25.26819,22.5057161 C26.8777689,22.2216728 28.4589196,22.0985892 30.0116898,22.1364617 C30.9206284,22.1743341 31.9147652,22.4489052 32.9941298,22.9601832 C34.0734944,23.4714611 35.0202913,24.1436869 35.8345488,24.9768807 C36.6488063,25.8100744 37.2074165,26.7663393 37.510396,27.8457039 C37.8133756,28.9250685 37.6429521,30.0517568 36.9991206,31.2258025 C36.2795442,32.4755931 35.1717918,33.725365 33.6758303,34.9751556 C32.1798688,36.2249462 30.4472306,37.3989743 28.4778635,38.4972752 C26.5084965,39.595576 24.4066075,40.5707768 22.1721333,41.4229068 C19.9376592,42.2750367 17.7316225,42.9377946 15.553957,43.4112001 C13.3762915,43.8846056 11.3217423,44.1307728 9.39024774,44.149709 C7.45875316,44.1686453 5.8113266,43.8751382 4.44791865,43.2691791 C3.46323514,42.8147098 2.62058592,42.1235481 1.91994573,41.1956733 C1.21930554,40.2677984 0.755375069,39.2831297 0.528140411,38.2416375 C0.300905753,37.2001453 0.376649503,36.1965406 0.755373932,35.2307933 C1.13409836,34.265046 1.89153586,33.4981406 3.02770915,32.9300539 C3.40643358,32.7785641 3.8230242,32.7785641 4.27749351,32.9300539 C4.73196283,33.0815437 5.12014955,33.299307 5.44206531,33.5833503 C5.76398108,33.8673936 5.97227639,34.1703686 6.06695749,34.4922844 C6.1616386,34.8142001 6.05749095,35.0698353 5.7545114,35.2591975 C4.39110346,36.1302637 3.5011144,36.8877012 3.08451753,37.5315327 C2.66792065,38.1753643 2.5921769,38.7055705 2.85728401,39.1221674 C3.12239111,39.5387642 3.65259735,39.8512072 4.44791865,40.0595057 C5.24323996,40.2678041 6.17110089,40.3719517 7.23152929,40.3719517 C8.29195769,40.3719517 9.409178,40.296208 10.5832237,40.1447182 C11.7572695,39.9932284 12.8744898,39.7470613 13.9349182,39.4062093 C17.1540758,38.4215258 20.3258453,37.1622859 23.4503219,35.628452 C26.5747984,34.094618 29.5572086,32.0211329 32.3976418,29.4079343 C33.7989222,28.1202713 34.4711479,27.1829424 34.4143393,26.5959195 C34.3575306,26.0088966 33.8083884,25.6775177 32.7668963,25.6017729 C31.7254041,25.526028 30.3146767,25.6396436 28.5346719,25.9426231 C26.7546671,26.2456027 24.8516054,26.6148535 22.8254297,27.0503866 C20.799254,27.4859196 18.7636407,27.9309142 16.7185288,28.3853835 C14.6734169,28.8398528 12.8934388,29.1806997 11.3785411,29.4079343 C10.6589646,29.5215517 9.87312324,29.5688915 9.02099327,29.5499553 C8.16886331,29.5310191 7.33568206,29.4552753 6.52142454,29.3227218 C5.70716701,29.1901682 4.93079358,28.9818729 4.19228094,28.6978296 C3.45376831,28.4137863 2.83835034,28.0445355 2.34600858,27.5900662 C0.868983308,26.2645307 0.319841123,24.7685916 0.698565552,23.1022041 C1.07728998,21.4358166 2.05249076,19.7315823 3.62419714,17.9894499 C5.19590352,16.2473175 7.22204882,14.5241472 9.70269384,12.8198873 C12.1833388,11.1156273 14.8059662,9.56288048 17.5706545,8.16160009 Z" id="Path" fill="#616161"></path>
                <path d="M66.0850113,3.7873548 C66.2743735,4.35544145 66.0566103,5.14128285 65.431715,6.14490259 C64.8068196,7.14852232 63.9262986,8.2752106 62.7901253,9.52500122 C61.653952,10.7747918 60.3284364,12.1097754 58.8135386,13.529992 C57.2986409,14.9502086 55.7080222,16.3704039 54.0416347,17.7906206 C52.3752472,19.2108372 50.6994167,20.5836926 49.014093,21.9092281 C47.3287693,23.2347636 45.7854904,24.4087918 44.38421,25.4313477 C44.043358,26.0373068 43.7782549,26.5485771 43.5888927,26.965174 C43.3995305,27.3438984 43.2764469,27.6468734 43.2196382,27.8741081 C43.1628296,28.1013427 43.2291054,28.1202787 43.4184676,27.9309164 C43.6457022,27.7415542 44.1001647,27.3344316 44.7818687,26.7095363 C45.4635727,26.084641 46.2020742,25.4218832 46.9973955,24.721243 C47.7927168,24.0206028 48.5785582,23.357845 49.3549433,22.7329496 C50.1313284,22.1080543 50.7467464,21.7009317 51.2012157,21.5115695 C51.6178125,21.3222073 52.0154672,21.3032713 52.3941917,21.4547611 C52.7729161,21.6062509 53.113763,21.8429501 53.4167425,22.1648658 C53.7197221,22.4867816 53.9658892,22.8276285 54.1552515,23.1874167 C54.3446137,23.5472049 54.4771652,23.8407119 54.5529101,24.0679466 C54.628655,24.3330537 54.4298277,24.7685802 53.9564221,25.3745393 C53.4830166,25.9804984 52.9717463,26.6148523 52.4225959,27.2776201 C51.8734454,27.9403878 51.400047,28.5368699 51.0023863,29.0670841 C50.6047257,29.5972983 50.519514,29.9192092 50.7467486,30.0328265 C50.8982384,30.070699 51.2106814,29.9854872 51.6840869,29.7771888 C52.1574924,29.5688904 52.7066346,29.2848513 53.3315299,28.9250631 C53.9564252,28.5652749 54.628651,28.1486843 55.3482274,27.6752787 C56.0678039,27.2018732 56.7494976,26.7474107 57.3933291,26.3118776 C58.0371607,25.8763445 58.6052388,25.4786898 59.0975805,25.1189016 C59.5899223,24.7591134 59.9307692,24.4845423 60.1201314,24.2951801 C60.7639629,23.8028383 61.2847012,23.6797548 61.6823618,23.9259256 C62.0800225,24.1720965 62.0894905,24.5413473 61.710766,25.0336891 C61.5214038,25.2609237 61.1332171,25.6964503 60.5461942,26.3402818 C59.9591714,26.9841133 59.2585417,27.675275 58.4442842,28.4137877 C57.6300266,29.1523003 56.7589735,29.8339941 55.8310987,30.4588894 C54.9032238,31.0837847 54.0227027,31.5098433 53.189509,31.7370779 C52.0912081,32.002185 51.1538792,32.011653 50.3774942,31.7654821 C49.6011091,31.5193112 48.9856911,31.1500605 48.5312218,30.6577187 C48.0767525,30.1653769 47.7643095,29.6067668 47.5938835,28.9818715 C47.4234575,28.3569762 47.4329255,27.7794301 47.6222877,27.2492159 C47.0542011,27.7794301 46.5050589,28.2528285 45.9748447,28.6694254 C45.5203754,29.0860223 45.0659129,29.483677 44.6114436,29.8624014 C44.1569742,30.2411258 43.7971914,30.5441008 43.5320843,30.7713355 C43.2669772,31.0364426 42.8977264,31.2542058 42.4243209,31.4246318 C41.9509154,31.5950578 41.458581,31.6897375 40.947303,31.7086737 C40.436025,31.72761 39.9815625,31.6518662 39.5839019,31.4814402 C39.1862412,31.3110142 38.949542,30.9985713 38.8737971,30.5441019 C38.7980523,30.0896326 39.0820913,29.0860279 39.7259228,27.5332578 C40.3697544,25.9804876 41.2692114,24.1626376 42.4243209,22.0796533 C43.5794304,19.9966689 44.914414,17.7716963 46.4293117,15.4046686 C47.9442094,13.0376409 49.5064243,10.8126683 51.1160031,8.72968389 C52.7255819,6.64669953 54.3162007,4.84778548 55.8879071,3.33288776 C57.4596134,1.81799004 58.8703408,0.852257234 60.1201314,0.435660362 C60.4988558,0.28417059 60.9817222,0.217894809 61.5687451,0.236831031 C62.155768,0.255767252 62.733314,0.388318814 63.3014007,0.634489693 C63.8694873,0.880660572 64.4091615,1.25937932 64.9204395,1.7706573 C65.4317175,2.28193528 65.8199042,2.95416106 66.0850113,3.7873548 Z" id="Path" fill="#616161"></path>
                <path d="M63.8694845,2.48076205 C63.7179947,2.29139984 63.3676799,2.4239514 62.8185295,2.87842072 C62.269379,3.33289003 61.5876853,3.98617987 60.7734278,4.83830984 C59.9591702,5.6904398 59.0502452,6.69404449 58.0466255,7.849154 C57.0430058,9.00426351 56.0299331,10.2066955 55.0073772,11.4564861 C52.6214133,14.3726643 49.9325101,17.7243252 46.9405872,21.5115695 C47.3950565,21.132845 48.1714299,20.4416833 49.2697307,19.4380636 C50.3680316,18.4344438 51.5799316,17.2793517 52.9054671,15.9727524 C54.2310026,14.6661531 55.5943901,13.2838297 56.9956705,11.8257406 C58.3969509,10.3676516 59.6372548,8.99479611 60.7166194,7.70713305 C61.795984,6.41946999 62.6481012,5.30224968 63.2729965,4.35543861 C63.8978918,3.40862753 64.0967191,2.7837416 63.8694845,2.48076205 Z" id="Path" fill="#FFFFFF"></path>
                <path d="M66.48267,19.4664678 C66.2554353,19.4664678 65.9713963,19.40966 65.6305443,19.2960426 C65.2896923,19.1824253 64.9772493,19.0309378 64.693206,18.8415756 C64.4091627,18.6522134 64.1819314,18.4344501 64.0115054,18.1882792 C63.8410794,17.9421083 63.7748037,17.6864732 63.8126761,17.4213661 C63.8505486,17.1941314 63.9546962,16.8911564 64.1251222,16.512432 C64.2955482,16.1337076 64.4943755,15.7644568 64.7216102,15.4046686 C64.9488449,15.0448804 65.20448,14.7324374 65.4885233,14.4673303 C65.7725667,14.2022232 66.0471377,14.0317998 66.3122448,13.9560549 C66.5773519,13.9181824 66.8992629,13.9655223 67.2779873,14.0980758 C67.6567117,14.2306294 68.0164946,14.4199888 68.3573465,14.6661596 C68.6981985,14.9123305 68.9727696,15.1774336 69.1810681,15.461477 C69.3893665,15.7455203 69.4745782,15.9822195 69.4367058,16.1715817 C69.4367058,16.3988164 69.3230901,16.6923234 69.0958555,17.0521116 C68.8686208,17.4118998 68.6035177,17.7622147 68.3005382,18.1030666 C67.9975586,18.4439186 67.6756477,18.7468936 67.3347957,19.0120007 C66.9939437,19.2771078 66.7099046,19.4285953 66.48267,19.4664678 Z" id="Path" fill="#616161"></path>
                <path d="M68.6413884,25.0336891 C69.3988373,24.3519851 69.9669154,24.1436898 70.3456399,24.4087969 C70.7243643,24.673904 70.5728768,25.2230462 69.8911728,26.0562399 C69.4367035,26.6243265 68.8875613,27.2208086 68.2437298,27.8457039 C67.5998982,28.4705992 66.9466084,29.0576132 66.2838407,29.6067637 C65.6210729,30.1559141 65.0056549,30.6293125 64.4375683,31.0269732 C63.8694817,31.4246338 63.4339551,31.661333 63.1309755,31.7370779 C62.7143787,31.7749504 62.2315123,31.6992066 61.6823618,31.5098444 C61.1332114,31.3204822 60.6030052,31.0364431 60.0917272,30.6577187 C59.5804492,30.2789943 59.1638586,29.8150638 58.8419428,29.2659134 C58.5200271,28.716763 58.3969435,28.101345 58.4726884,27.419641 C58.5484332,26.7758095 58.7283247,26.0657118 59.012368,25.2893268 C59.2964113,24.5129417 59.6277902,23.802844 60.0065146,23.1590125 C60.3852391,22.515181 60.7639578,21.9849747 61.1426822,21.5683778 C61.5214067,21.151781 61.8622535,20.9624216 62.1652331,21.000294 C62.4303402,21.0760389 62.7143792,21.1801866 63.0173588,21.3127401 C63.3203383,21.4452937 63.5949094,21.5967812 63.8410803,21.7672072 C64.0872512,21.9376332 64.2860785,22.1364605 64.4375683,22.3636952 C64.5890581,22.5909298 64.6458659,22.856033 64.6079934,23.1590125 C64.570121,23.461992 64.3996976,23.9069866 64.096718,24.4940094 C63.7937385,25.0810323 63.4907635,25.6775143 63.1877839,26.2834734 C62.8848044,26.8894325 62.6197013,27.4385747 62.3924666,27.9309164 C62.1652319,28.4232582 62.1273601,28.7262332 62.2788498,28.8398505 C62.3924672,28.9155954 62.6670383,28.8682556 63.1025714,28.6978296 C63.5381045,28.5274036 64.0493748,28.2717684 64.6363976,27.9309164 C65.2234205,27.5900645 65.8672424,27.1734738 66.5678826,26.6811321 C67.2685228,26.1887903 67.9596845,25.6396481 68.6413884,25.0336891 Z" id="Path" fill="#616161"></path>
                <path d="M71.5954242,24.9200723 C72.3907455,24.806455 73.138715,24.796987 73.8393552,24.8916681 C74.5399954,24.9863492 75.1648814,25.1473047 75.7140318,25.3745393 C76.2631822,25.601774 76.6987088,25.904749 77.0206245,26.2834734 C77.3425403,26.6621978 77.5034958,27.0977244 77.5034958,27.5900662 C77.5034958,28.0824079 77.3425403,28.669422 77.0206245,29.351126 C76.6987088,30.0328299 76.2821182,30.6955877 75.7708402,31.3394193 C75.2595622,31.9832508 74.6725481,32.5702649 74.0097804,33.1004791 C73.3470126,33.6306933 72.7126587,33.9715401 72.1066996,34.1230299 C71.4628681,34.2745197 70.8379822,34.2555837 70.2320231,34.0662215 C69.626064,33.8768593 69.0863898,33.5928202 68.6129843,33.2140958 C68.1395787,32.8353714 67.751392,32.4093128 67.4484125,31.9359073 C67.1454329,31.4625017 66.9939454,31.0364431 66.9939454,30.6577187 C66.9939454,30.3926116 67.0980931,30.0896366 67.3063915,29.7487846 C67.5146899,29.4079326 67.789261,29.0765537 68.130113,28.754638 C68.470965,28.4327222 68.8496838,28.1297472 69.2662806,27.8457039 C69.6828775,27.5616606 70.0994681,27.3249613 70.516065,27.1355991 C71.1598965,26.8326196 71.5386153,26.8231516 71.6522326,27.1071949 C71.7658499,27.3912383 71.6332984,27.7415531 71.2545739,28.15815 C71.1409566,28.2717673 70.9610652,28.4705946 70.7148943,28.754638 L69.9763854,29.6067637 C69.7302145,29.890807 69.5219192,30.1653781 69.3514932,30.4304852 C69.1810672,30.6955923 69.1526633,30.8849517 69.2662806,30.998569 C69.4556428,31.1500588 69.7870217,31.064847 70.2604273,30.7429313 C70.7338328,30.4210155 71.2072313,30.0044249 71.6806368,29.4931469 C72.1540423,28.9818689 72.5706329,28.4705986 72.9304212,27.9593206 C73.2902094,27.4480427 73.4511648,27.0598559 73.4132924,26.7947488 C73.3375475,26.5296417 73.0724444,26.4065581 72.6179751,26.4254944 C72.1635057,26.4444306 71.6522354,26.4633665 71.0841488,26.4823027 C70.5160622,26.501239 69.9385161,26.4633671 69.3514932,26.368686 C68.7644703,26.2740049 68.3194758,25.9994338 68.0164963,25.5449645 C67.6756443,25.0526227 67.5336247,24.4940126 67.5904334,23.8691173 C67.6472421,23.2442219 67.8271335,22.6477399 68.130113,22.0796533 C68.4330926,21.5115666 68.8212793,21.0287002 69.2946848,20.6310396 C69.7680904,20.2333789 70.2320208,19.9966797 70.6864901,19.9209348 C70.9894697,19.8830624 71.3113806,19.9398702 71.6522326,20.09136 C71.9930846,20.2428497 72.3055276,20.4416771 72.5895709,20.687848 C72.8736142,20.9340188 73.1103134,21.2085899 73.2996756,21.5115695 C73.4890378,21.814549 73.5837175,22.0985881 73.5837175,22.3636952 C73.5837175,22.8939094 73.3375503,23.3294359 72.8452086,23.6702879 C72.3528668,24.0111399 71.9362762,24.4277305 71.5954242,24.9200723 Z" id="Path" fill="#616161"></path>
                <path d="M105.112369,3.7873548 C105.301731,4.35544145 105.083968,5.14128285 104.459072,6.14490259 C103.834177,7.14852232 102.953656,8.2752106 101.817483,9.52500122 C100.681309,10.7747918 99.3557937,12.1097754 97.8408959,13.529992 C96.3259982,14.9502086 94.7353795,16.3704039 93.068992,17.7906206 C91.4026045,19.2108372 89.726774,20.5836926 88.0414503,21.9092281 C86.3561266,23.2347636 84.8128477,24.4087918 83.4115673,25.4313477 C83.0707153,26.0373068 82.8056122,26.5485771 82.61625,26.965174 C82.4268878,27.3438984 82.3038042,27.6468734 82.2469955,27.8741081 C82.1901869,28.1013427 82.2564626,28.1202787 82.4458249,27.9309164 C82.6730595,27.7415542 83.127522,27.3344316 83.809226,26.7095363 C84.49093,26.084641 85.2294315,25.4218832 86.0247528,24.721243 C86.8200741,24.0206028 87.6059155,23.357845 88.3823006,22.7329496 C89.1586857,22.1080543 89.7741037,21.7009317 90.228573,21.5115695 C90.6451698,21.3222073 91.0428245,21.3032713 91.421549,21.4547611 C91.8002734,21.6062509 92.1411203,21.8429501 92.4440998,22.1648658 C92.7470793,22.4867816 92.9932465,22.8276285 93.1826087,23.1874167 C93.371971,23.5472049 93.5045225,23.8407119 93.5802674,24.0679466 C93.6560123,24.3330537 93.457185,24.7685802 92.9837794,25.3745393 C92.5103739,25.9804984 91.9991036,26.6148523 91.4499531,27.2776201 C90.9008027,27.9403878 90.4274043,28.5368699 90.0297436,29.0670841 C89.632083,29.5972983 89.5468713,29.9192092 89.7741059,30.0328265 C89.9255957,30.070699 90.2380387,29.9854872 90.7114442,29.7771888 C91.1848497,29.5688904 91.7339919,29.2848513 92.3588872,28.9250631 C92.9837825,28.5652749 93.6560083,28.1486843 94.3755847,27.6752787 C95.0951612,27.2018732 95.7768549,26.7474107 96.4206864,26.3118776 C97.064518,25.8763445 97.6325961,25.4786898 98.1249378,25.1189016 C98.6172796,24.7591134 98.9581265,24.4845423 99.1474887,24.2951801 C99.7913202,23.8028383 100.312058,23.6797548 100.709719,23.9259256 C101.10738,24.1720965 101.116848,24.5413473 100.738123,25.0336891 C100.548761,25.2609237 100.160574,25.6964503 99.5735515,26.3402818 C98.9865287,26.9841133 98.285899,27.675275 97.4716415,28.4137877 C96.6573839,29.1523003 95.7863308,29.8339941 94.858456,30.4588894 C93.9305811,31.0837847 93.05006,31.5098433 92.2168663,31.7370779 C91.1185654,32.002185 90.1812365,32.011653 89.4048515,31.7654821 C88.6284664,31.5193112 88.0130484,31.1500605 87.5585791,30.6577187 C87.1041098,30.1653769 86.7916668,29.6067668 86.6212408,28.9818715 C86.4508148,28.3569762 86.4602828,27.7794301 86.649645,27.2492159 C86.0815584,27.7794301 85.5324162,28.2528285 85.002202,28.6694254 C84.5477327,29.0860223 84.0932702,29.483677 83.6388009,29.8624014 C83.1843315,30.2411258 82.8245487,30.5441008 82.5594416,30.7713355 C82.2943345,31.0364426 81.9250837,31.2542058 81.4516782,31.4246318 C80.9782727,31.5950578 80.4859383,31.6897375 79.9746603,31.7086737 C79.4633823,31.72761 79.0089198,31.6518662 78.6112592,31.4814402 C78.2135985,31.3110142 77.9768993,30.9985713 77.9011544,30.5441019 C77.8254096,30.0896326 78.1094486,29.0860279 78.7532801,27.5332578 C79.3971117,25.9804876 80.2965687,24.1626376 81.4516782,22.0796533 C82.6067877,19.9966689 83.9417713,17.7716963 85.456669,15.4046686 C86.9715667,13.0376409 88.5337816,10.8126683 90.1433604,8.72968389 C91.7529392,6.64669953 93.343558,4.84778548 94.9152643,3.33288776 C96.4869707,1.81799004 97.8976981,0.852257234 99.1474887,0.435660362 C99.5262131,0.28417059 100.00908,0.217894809 100.596102,0.236831031 C101.183125,0.255767252 101.760671,0.388318814 102.328758,0.634489693 C102.896845,0.880660572 103.436519,1.25937932 103.947797,1.7706573 C104.459075,2.28193528 104.847262,2.95416106 105.112369,3.7873548 Z" id="Path" fill="#616161"></path>
                <path d="M102.896842,2.48076205 C102.745352,2.29139984 102.395037,2.4239514 101.845887,2.87842072 C101.296736,3.33289003 100.615043,3.98617987 99.8007851,4.83830984 C98.9865275,5.6904398 98.0776025,6.69404449 97.0739828,7.849154 C96.0703631,9.00426351 95.0572904,10.2066955 94.0347345,11.4564861 C91.6487705,14.3726643 88.9598674,17.7243252 85.9679444,21.5115695 C86.4224138,21.132845 87.1987872,20.4416833 88.297088,19.4380636 C89.3953889,18.4344438 90.6072889,17.2793517 91.9328244,15.9727524 C93.2583599,14.6661531 94.6217474,13.2838297 96.0230278,11.8257406 C97.4243082,10.3676516 98.6646121,8.99479611 99.7439767,7.70713305 C100.823341,6.41946999 101.675458,5.30224968 102.300354,4.35543861 C102.925249,3.40862753 103.124076,2.7837416 102.896842,2.48076205 Z" id="Path" fill="#FFFFFF"></path>
                <path d="M114.769793,24.9200723 C115.300007,24.4277305 115.726066,24.3046469 116.047982,24.5508178 C116.369898,24.7969887 116.26575,25.2419832 115.735536,25.8858148 C115.432556,26.2266667 115.015966,26.7284691 114.485751,27.3912368 C113.955537,28.0540046 113.406395,28.7262304 112.838308,29.4079343 C112.270222,30.0896383 111.702144,30.6955883 111.134057,31.2258025 C110.56597,31.7560167 110.092572,32.0589917 109.713847,32.1347366 C109.221506,32.2483539 108.530344,32.1726102 107.640342,31.9075031 C106.750339,31.642396 105.983434,31.2447413 105.339602,30.7145271 C104.84726,31.0553791 104.373862,31.386758 103.919393,31.7086737 C103.464923,32.0305895 103.010461,32.2672887 102.555992,32.4187785 C102.139395,32.4945234 101.628124,32.4755874 101.022165,32.3619701 C100.416206,32.2483528 99.8197241,32.0305895 99.2327013,31.7086737 C98.6456784,31.386758 98.1249401,30.9985713 97.6704708,30.5441019 C97.2160015,30.0896326 96.9130265,29.5594264 96.7615367,28.9534673 C96.6100469,28.3096358 96.7710024,27.5427303 97.2444079,26.6527279 C97.7178135,25.7627255 98.2953596,24.9200763 98.9770635,24.124755 C99.6587675,23.3294337 100.368865,22.6382719 101.107378,22.0512491 C101.84589,21.4642262 102.423437,21.1517832 102.840033,21.1139108 C103.105141,21.0760384 103.436519,21.0949743 103.83418,21.1707192 C104.231841,21.2464641 104.629495,21.3790156 105.027156,21.5683778 C105.424817,21.7577401 105.7846,21.9849713 106.106515,22.2500784 C106.428431,22.5151855 106.646194,22.8181605 106.759812,23.1590125 C107.290026,22.7045432 107.744488,22.4962479 108.123213,22.5341203 C108.426192,22.6098652 108.748103,22.7045449 109.088955,22.8181622 C109.429807,22.9317795 109.74225,23.0643311 110.026294,23.2158209 C110.310337,23.3673107 110.547036,23.55667 110.736398,23.7839047 C110.92576,24.0111393 111.001504,24.2573065 110.963632,24.5224136 C110.963632,24.8253932 110.812144,25.2325158 110.509165,25.7437938 C110.206185,26.2550718 109.884274,26.7758101 109.543422,27.3060243 C109.20257,27.8362385 108.918531,28.3096369 108.691297,28.7262338 C108.464062,29.1428306 108.42619,29.4079338 108.57768,29.5215511 C108.691297,29.597296 108.946932,29.5120843 109.344593,29.2659134 C109.742254,29.0197425 110.22512,28.6788956 110.793207,28.2433625 C111.361293,27.8078294 111.995647,27.3060271 112.696287,26.7379405 C113.396928,26.1698538 114.088089,25.5639038 114.769793,24.9200723 Z" id="Path" fill="#616161"></path>
                <path d="M100.51089,30.3736768 C100.927487,30.6009115 101.448225,30.4778279 102.07312,30.0044223 C102.698016,29.5310168 103.294498,28.9345348 103.862584,28.2149583 C104.430671,27.4953819 104.913537,26.7568804 105.311198,25.9994315 C105.708859,25.2419827 105.907686,24.6739045 105.907686,24.2951801 C105.756196,23.9543281 105.491093,23.8596484 105.112369,24.0111382 C104.733644,24.162628 104.317054,24.446667 103.862584,24.8632639 C103.408115,25.2798608 102.944184,25.7911311 102.470779,26.3970902 C101.997373,27.0030493 101.590251,27.5805954 101.249399,28.1297458 C100.908547,28.6788962 100.652912,29.1712306 100.482486,29.6067637 C100.31206,30.0422968 100.321528,30.2979319 100.51089,30.3736768 Z" id="Path" fill="#FFFFFF"></path>
                <path d="M128.006146,23.7270963 C127.968273,23.9164585 127.769446,24.0963499 127.409658,24.2667759 C127.04987,24.4372019 126.585939,24.6076253 126.017853,24.7780513 C125.449766,24.9484773 124.815412,25.1283687 124.114772,25.317731 C123.414132,25.5070932 122.685098,25.7343244 121.927649,25.9994315 C121.738287,26.4160284 121.577332,26.832619 121.444778,27.2492159 C121.312224,27.6658128 121.340628,28.0255956 121.529991,28.3285751 C121.605735,28.5179373 122.069666,28.4705975 122.921796,28.1865542 C123.773926,27.9025108 124.720723,27.5332601 125.762215,27.0787907 C126.803707,26.6243214 127.807312,26.1698589 128.773059,25.7153896 C129.738806,25.2609203 130.37316,24.9200734 130.67614,24.6928388 C131.357844,24.200497 131.906986,23.9637978 132.323583,23.982734 C132.74018,24.0016702 132.683372,24.4087929 132.153158,25.2041142 C131.812306,25.5828386 131.272631,26.065705 130.534119,26.6527279 C129.795606,27.2397508 128.981361,27.8362328 128.091358,28.4421919 C127.201356,29.048151 126.320835,29.6162291 125.449769,30.1464433 C124.578703,30.6766575 123.859137,31.0743122 123.29105,31.3394193 C122.722964,31.6045264 122.154886,31.6708021 121.586799,31.5382486 C121.018712,31.405695 120.497974,31.1784638 120.024568,30.856548 C119.551163,30.5346323 119.14404,30.2032534 118.803188,29.8624014 C118.462336,29.5215494 118.254041,29.2564463 118.178296,29.0670841 C118.064679,28.9155943 118.017339,28.7451708 118.036275,28.5558086 C118.055211,28.3664464 118.083615,28.177087 118.121488,27.9877248 C117.477656,28.4043217 116.919046,28.92506 116.44564,29.5499553 C115.972235,30.1748506 115.62192,30.8849482 115.394685,31.6802696 C115.129578,31.9075042 114.826603,32.0021839 114.485751,31.9643115 C114.144899,31.926439 113.81352,31.8128234 113.491605,31.6234612 C113.169689,31.434099 112.904586,31.1973997 112.696287,30.9133564 C112.487989,30.6293131 112.383841,30.354742 112.383841,30.0896349 C112.383841,29.7487829 112.592137,29.0860251 113.008733,28.1013416 C113.42533,27.1166581 113.983941,25.9520979 114.684581,24.6076262 C115.385221,23.2631545 116.208934,21.7672154 117.155745,20.1197642 C118.102556,18.4723129 119.125097,16.8059504 120.223398,15.1206267 C121.321699,13.435303 122.457855,11.7784084 123.631901,10.1498934 C124.805946,8.52137835 125.979974,7.04437524 127.15402,5.71883973 C128.328066,4.39330423 129.464222,3.25714799 130.562523,2.31033691 C131.660824,1.36352584 132.683364,0.738639906 133.630176,0.435660362 C134.046772,0.28417059 134.539107,0.217894809 135.107193,0.236831031 C135.67528,0.255767252 136.252826,0.388318814 136.839849,0.634489693 C137.426872,0.880660572 137.966546,1.25937932 138.458888,1.7706573 C138.95123,2.28193528 139.329948,2.95416106 139.595055,3.7873548 C139.746545,4.35544145 139.519314,5.14128285 138.913355,6.14490259 C138.307396,7.14852232 137.436343,8.2752106 136.300169,9.52500122 C135.163996,10.7747918 133.838481,12.1097754 132.323583,13.529992 C130.808685,14.9502086 129.218066,16.3704039 127.551679,17.7906206 C125.885291,19.2108372 124.218929,20.5836926 122.552541,21.9092281 C120.886154,23.2347636 119.352343,24.4087918 117.951063,25.4313477 L116.928512,27.6468745 C118.254047,26.5864461 119.503819,25.6017774 120.677865,24.6928388 C121.662548,23.9353899 122.637749,23.2252923 123.603496,22.5625245 C124.569244,21.8997568 125.260405,21.4926341 125.677002,21.3411443 C125.942109,21.3032719 126.21668,21.3600797 126.500724,21.5115695 C126.784767,21.6630592 127.04987,21.8618866 127.296041,22.1080575 C127.542212,22.3542283 127.731571,22.6287994 127.864125,22.931779 C127.996678,23.2347585 128.044018,23.4998616 128.006146,23.7270963 Z" id="Path" fill="#616161"></path>
                <path d="M137.493145,2.48076205 C137.341656,2.29139984 136.981873,2.4239514 136.413786,2.87842072 C135.8457,3.33289003 135.14507,3.98617987 134.311876,4.83830984 C133.478682,5.6904398 132.560289,6.69404449 131.55667,7.849154 C130.55305,9.00426351 129.539977,10.2066955 128.517421,11.4564861 C126.131457,14.3726643 123.442554,17.7243252 120.450631,21.5115695 C120.942973,21.132845 121.728814,20.4416833 122.808179,19.4380636 C123.887544,18.4344438 125.089976,17.2793517 126.415511,15.9727524 C127.741047,14.6661531 129.104434,13.2838297 130.505715,11.8257406 C131.906995,10.3676516 133.156767,8.99479611 134.255068,7.70713305 C135.353369,6.41946999 136.214954,5.30224968 136.839849,4.35543861 C137.464744,3.40862753 137.682508,2.7837416 137.493145,2.48076205 Z" id="Path" fill="#FFFFFF"></path>
            </g>
        </g>
    </g>
</svg>